<?xml version="1.0" standalone="no"?><!-- Generator: Gravit.io --><svg xmlns="http://www.w3.org/2000/svg" xmlns:xlink="http://www.w3.org/1999/xlink" style="isolation:isolate" viewBox="0 0 100 35" width="100" height="35"><path d=" M 93.622 8.449 C 93.622 12.116 91.414 14.741 88.039 15.949 L 95.986 26.281 C 98.281 23.537 99.663 20.004 99.663 16.146 C 99.663 9.636 95.728 4.047 90.109 1.622 C 92.549 3.131 93.622 5.632 93.622 8.449 Z " fill="rgb(255,255,255)"/><path d=" M 81.58 17.407 L 80.128 17.407 L 80.128 31.601 C 81.399 31.929 82.475 31.96 83.849 31.96 C 86.76 31.96 89.486 31.17 91.828 29.798 L 83.497 18.407 C 82.997 17.698 82.372 17.407 81.58 17.407 Z " fill="rgb(255,255,255)"/><path d=" M 83.164 4.449 L 80.129 4.449 L 80.129 13.074 L 83.289 13.074 C 84.872 13.074 88.039 12.366 88.039 8.616 C 88.039 5.865 85.872 4.449 83.164 4.449 Z " fill="rgb(255,255,255)"/><path d=" M 1.765 6.546 L 3.104 6.546 C 4.55 6.546 5.283 5.778 5.283 4.225 C 5.283 2.797 4.711 2.279 3.158 2.279 L 1.765 2.279 L 1.765 6.546 Z  M 4.479 7.51 L 7.372 12.705 C 7.39 12.723 7.39 12.741 7.408 12.759 C 7.426 12.813 7.426 12.848 7.444 12.866 L 7.444 12.884 C 7.444 12.938 7.373 12.991 7.23 13.009 L 6.177 13.223 L 6.104 13.223 C 5.997 13.223 5.943 13.187 5.89 13.08 L 3.087 7.635 L 1.765 7.635 L 1.765 12.813 C 1.765 13.009 1.729 13.045 1.533 13.045 L 0.569 13.045 C 0.373 13.045 0.337 13.009 0.337 12.813 L 0.337 1.386 C 0.337 1.172 0.373 1.136 0.569 1.136 L 3.247 1.136 C 4.568 1.136 5.211 1.279 5.747 1.707 C 6.372 2.189 6.747 3.082 6.747 4.118 C 6.729 5.796 5.925 7.028 4.479 7.51 Z " fill="rgb(255,255,255)"/><path d=" M 14.066 8.956 L 14.066 8.795 C 14.066 6.706 13.352 5.563 12.03 5.563 C 10.673 5.563 9.959 6.652 9.959 8.741 C 9.959 11.062 10.637 12.187 12.03 12.187 C 13.37 12.187 14.013 11.17 14.066 8.956 Z  M 15.477 8.831 C 15.477 11.634 14.138 13.276 11.906 13.276 C 9.781 13.276 8.55 11.669 8.55 8.92 C 8.55 6.117 9.871 4.474 12.085 4.474 C 14.227 4.475 15.477 6.063 15.477 8.831 Z " fill="rgb(255,255,255)"/><path d=" M 17.925 4.707 L 17.925 2.332 C 17.925 2.225 17.996 2.154 18.103 2.118 L 19.014 1.868 L 19.068 1.85 C 19.086 1.85 19.086 1.832 19.104 1.832 C 19.211 1.832 19.229 1.867 19.229 2.028 L 19.229 4.706 L 21.835 4.706 C 21.942 4.706 21.996 4.742 21.996 4.831 C 21.996 4.849 21.996 4.867 21.978 4.938 L 21.782 5.616 C 21.746 5.741 21.692 5.777 21.55 5.777 L 19.229 5.777 L 19.229 10.669 C 19.229 11.794 19.443 12.097 20.282 12.097 C 20.71 12.097 21.121 11.972 21.835 11.651 C 21.871 11.633 21.924 11.615 21.96 11.615 C 22.014 11.615 22.049 11.651 22.067 11.722 L 22.281 12.436 L 22.299 12.49 L 22.299 12.526 C 22.299 12.597 22.263 12.633 22.156 12.704 C 21.478 13.043 20.745 13.222 20.049 13.222 C 18.496 13.222 17.924 12.526 17.924 10.687 L 17.924 5.777 L 16.692 5.777 C 16.513 5.777 16.478 5.759 16.478 5.581 L 16.478 4.902 C 16.478 4.741 16.514 4.706 16.692 4.706 L 17.925 4.706 L 17.925 4.707 Z " fill="rgb(255,255,255)"/><path d=" M 24.925 5.617 C 25.853 4.778 26.567 4.474 27.585 4.474 C 29.139 4.474 29.71 5.17 29.71 7.081 L 29.71 12.848 C 29.71 13.009 29.674 13.044 29.514 13.044 L 28.603 13.044 C 28.46 13.044 28.407 13.008 28.407 12.919 L 28.407 12.847 L 28.407 7.062 C 28.407 5.973 28.103 5.598 27.211 5.598 C 26.515 5.598 25.89 5.901 24.926 6.687 L 24.926 12.847 C 24.926 13.008 24.89 13.043 24.729 13.043 L 23.818 13.043 C 23.639 13.043 23.604 13.007 23.604 12.847 L 23.604 0.922 C 23.604 0.815 23.676 0.743 23.783 0.708 L 24.694 0.494 L 24.748 0.476 L 24.819 0.476 C 24.89 0.476 24.926 0.53 24.926 0.673 L 24.926 5.617 L 24.925 5.617 Z " fill="rgb(255,255,255)"/><path d=" M 33.458 8.099 L 37.208 8.099 C 37.172 6.438 36.511 5.528 35.351 5.528 C 34.19 5.528 33.53 6.403 33.458 8.099 Z  M 33.44 9.17 C 33.529 11.063 34.333 12.098 35.743 12.098 C 36.35 12.098 37.011 11.902 37.743 11.473 C 37.797 11.438 37.868 11.42 37.904 11.42 C 37.957 11.42 38.011 11.456 38.029 11.509 L 38.351 12.188 C 38.369 12.259 38.387 12.277 38.387 12.313 C 38.387 12.474 38.101 12.652 37.512 12.902 C 36.887 13.152 36.262 13.277 35.619 13.277 C 33.423 13.277 32.012 11.581 32.012 8.885 C 32.012 6.189 33.352 4.475 35.441 4.475 C 37.422 4.475 38.583 5.886 38.619 8.331 L 38.619 8.849 C 38.619 9.099 38.583 9.17 38.423 9.17 L 33.44 9.17 Z " fill="rgb(255,255,255)"/><path d=" M 41.939 5.921 L 42.135 5.689 C 43.028 4.725 43.421 4.475 44.099 4.475 C 44.349 4.475 44.617 4.529 44.849 4.636 C 44.92 4.672 44.974 4.707 44.974 4.761 C 44.974 4.779 44.956 4.832 44.938 4.886 L 44.51 5.832 C 44.492 5.886 44.456 5.903 44.421 5.903 C 44.403 5.903 44.385 5.903 44.368 5.885 C 44.064 5.778 43.993 5.778 43.832 5.778 C 43.385 5.778 42.975 6.082 42.118 7.099 L 42.118 12.848 C 42.118 13.027 42.082 13.044 41.922 13.044 L 41.011 13.044 C 40.833 13.044 40.815 13.008 40.815 12.848 L 40.815 7.635 C 40.815 6.26 40.744 5.957 40.387 5.296 C 40.333 5.207 40.315 5.171 40.315 5.117 C 40.315 5.064 40.351 5.01 40.422 4.974 L 41.136 4.51 C 41.172 4.492 41.243 4.474 41.279 4.474 C 41.386 4.474 41.565 4.724 41.725 5.152 C 41.832 5.438 41.886 5.563 41.939 5.921 Z " fill="rgb(255,255,255)"/><path d=" M 47.742 5.617 C 48.67 4.778 49.385 4.474 50.402 4.474 C 51.955 4.474 52.527 5.17 52.527 7.081 L 52.527 12.848 C 52.527 13.009 52.491 13.044 52.331 13.044 L 51.42 13.044 C 51.277 13.044 51.224 13.008 51.224 12.919 L 51.224 12.847 L 51.224 7.062 C 51.224 5.973 50.92 5.598 50.028 5.598 C 49.331 5.598 48.706 5.901 47.742 6.687 L 47.742 12.847 C 47.742 13.008 47.706 13.043 47.546 13.043 L 46.635 13.043 C 46.457 13.043 46.421 13.007 46.421 12.847 L 46.421 0.922 C 46.421 0.815 46.493 0.743 46.6 0.708 L 47.511 0.494 L 47.564 0.476 L 47.635 0.476 C 47.707 0.476 47.742 0.53 47.742 0.673 L 47.742 5.617 Z " fill="rgb(255,255,255)"/><path d=" M 59.187 8.902 C 57.008 8.92 55.937 9.527 55.937 10.741 C 55.937 11.562 56.456 12.134 57.187 12.134 C 57.812 12.134 58.418 11.83 59.187 11.134 L 59.187 8.902 L 59.187 8.902 Z  M 59.187 7.813 L 59.187 7.241 C 59.187 6.116 58.741 5.688 57.581 5.688 C 56.919 5.688 56.366 5.831 55.526 6.206 C 55.473 6.224 55.42 6.242 55.402 6.242 C 55.348 6.242 55.295 6.206 55.276 6.153 L 55.026 5.457 C 54.991 5.386 54.991 5.368 54.991 5.332 C 54.991 5.207 55.134 5.1 55.616 4.921 C 56.295 4.653 56.991 4.51 57.759 4.51 C 59.616 4.51 60.491 5.296 60.491 6.956 L 60.491 10.223 C 60.491 11.437 60.58 11.848 60.955 12.508 C 60.991 12.544 60.991 12.579 60.991 12.597 C 60.991 12.633 60.972 12.686 60.936 12.704 L 60.168 13.168 C 60.114 13.204 60.061 13.222 60.025 13.222 C 59.865 13.222 59.561 12.704 59.382 12.133 C 58.578 12.901 57.847 13.222 56.9 13.222 C 55.49 13.222 54.597 12.294 54.597 10.847 C 54.598 8.867 56.098 7.867 59.187 7.813 Z " fill="rgb(255,255,255)"/><path d=" M 64.578 5.492 C 65.524 4.76 66.203 4.474 67.024 4.474 C 67.845 4.474 68.38 4.795 68.685 5.492 C 69.72 4.76 70.415 4.474 71.22 4.474 C 72.541 4.474 73.094 5.188 73.094 6.92 L 73.094 12.848 C 73.094 13.009 73.058 13.044 72.898 13.044 L 72.005 13.044 C 71.827 13.044 71.79 13.008 71.79 12.848 L 71.79 6.867 C 71.79 5.992 71.451 5.599 70.685 5.599 C 70.13 5.599 69.703 5.759 68.916 6.295 L 68.916 12.919 C 68.916 13.008 68.862 13.044 68.72 13.044 L 67.827 13.044 C 67.666 13.044 67.63 13.008 67.63 12.848 L 67.63 6.885 C 67.63 6.028 67.255 5.6 66.505 5.6 C 65.952 5.6 65.47 5.796 64.775 6.332 L 64.775 12.849 C 64.775 13.01 64.738 13.045 64.578 13.045 L 63.685 13.045 C 63.542 13.045 63.47 13.009 63.47 12.92 L 63.47 12.848 L 63.47 6.599 C 63.47 6.046 63.417 5.724 63.256 5.331 L 63.167 5.152 C 63.167 5.116 63.149 5.099 63.149 5.063 C 63.149 5.027 63.184 4.974 63.238 4.956 L 63.934 4.545 C 63.969 4.527 64.041 4.509 64.077 4.509 C 64.221 4.51 64.436 4.921 64.578 5.492 Z " fill="rgb(255,255,255)"/><path d=" M 13.421 29.802 C 14.254 29.802 14.57 30.052 14.57 30.693 C 14.57 31.325 14.245 31.564 13.402 31.564 L 12.971 31.564 L 12.971 29.802 L 13.421 29.802 Z  M 13.459 27.13 C 14.091 27.13 14.378 27.389 14.378 27.964 C 14.378 28.528 14.072 28.845 13.497 28.845 L 13.363 28.845 L 12.97 28.845 L 12.97 27.13 L 13.459 27.13 Z  M 15.624 27.829 C 15.624 27.35 15.442 26.891 15.135 26.595 C 14.8 26.279 14.474 26.193 13.46 26.193 L 11.947 26.193 C 11.775 26.193 11.756 26.221 11.756 26.384 L 11.756 32.388 C 11.756 32.56 11.775 32.579 11.947 32.579 L 13.536 32.579 C 14.197 32.579 14.369 32.559 14.704 32.474 C 15.365 32.302 15.853 31.574 15.853 30.769 C 15.853 30.003 15.422 29.429 14.685 29.238 C 15.346 28.931 15.624 28.509 15.624 27.829 Z " fill="rgb(255,255,255)"/><path d=" M 17.63 30.29 C 17.63 29.198 17.851 28.759 18.396 28.759 C 18.942 28.759 19.162 29.208 19.162 30.28 C 19.162 31.352 18.942 31.803 18.396 31.803 C 17.851 31.804 17.63 31.362 17.63 30.29 Z  M 18.415 27.819 C 17.151 27.819 16.375 28.758 16.375 30.271 C 16.375 31.832 17.122 32.741 18.405 32.741 C 19.64 32.741 20.416 31.794 20.416 30.29 C 20.417 28.749 19.669 27.819 18.415 27.819 Z " fill="rgb(255,255,255)"/><path d=" M 22.006 27.829 C 21.977 27.829 21.948 27.839 21.901 27.849 L 21.145 28.117 C 21.087 28.137 21.059 28.176 21.059 28.222 C 21.059 28.242 21.068 28.271 21.078 28.299 L 21.135 28.433 C 21.288 28.787 21.356 29.113 21.356 29.591 L 21.356 32.417 C 21.356 32.56 21.375 32.579 21.509 32.579 L 22.371 32.579 C 22.515 32.579 22.534 32.559 22.534 32.417 L 22.534 29.323 C 22.821 29.007 23.041 28.873 23.242 28.873 C 23.347 28.873 23.501 28.901 23.616 28.96 C 23.644 28.97 23.664 28.97 23.673 28.97 C 23.712 28.97 23.731 28.95 23.759 28.883 L 24.036 28.126 C 24.046 28.098 24.056 28.05 24.056 28.03 C 24.056 27.925 23.807 27.819 23.529 27.819 C 23.117 27.819 22.849 27.973 22.457 28.442 L 22.361 28.547 C 22.265 28.106 22.121 27.829 22.006 27.829 Z " fill="rgb(255,255,255)"/><path d=" M 25.335 30.29 C 25.335 29.198 25.555 28.759 26.101 28.759 C 26.647 28.759 26.867 29.208 26.867 30.28 C 26.867 31.352 26.647 31.803 26.101 31.803 C 25.555 31.803 25.335 31.362 25.335 30.29 Z  M 26.121 27.819 C 24.857 27.819 24.081 28.758 24.081 30.271 C 24.081 31.832 24.828 32.741 26.111 32.741 C 27.346 32.741 28.122 31.794 28.122 30.29 C 28.122 28.749 27.375 27.819 26.121 27.819 Z " fill="rgb(255,255,255)"/><path d=" M 30.726 31.804 C 30.305 31.804 30.161 31.583 30.161 30.96 L 30.161 30.874 L 30.161 27.984 C 30.161 27.879 30.132 27.829 30.056 27.829 C 30.037 27.829 30.008 27.839 29.979 27.839 L 29.118 28.03 C 28.993 28.06 28.974 28.069 28.974 28.204 L 28.974 30.923 C 28.974 31.804 29.022 32.024 29.29 32.341 C 29.51 32.6 29.874 32.741 30.344 32.741 C 30.88 32.741 31.215 32.598 31.636 32.196 C 31.703 32.522 31.808 32.704 31.913 32.704 L 31.971 32.704 C 31.991 32.694 32 32.694 32.019 32.694 L 32.795 32.511 C 32.862 32.502 32.881 32.483 32.881 32.435 C 32.881 32.416 32.872 32.387 32.862 32.348 C 32.718 32.08 32.68 31.869 32.68 31.41 L 32.68 27.982 C 32.68 27.877 32.661 27.828 32.594 27.828 C 32.584 27.828 32.565 27.828 32.546 27.838 L 32.507 27.838 L 31.636 28.029 C 31.511 28.058 31.502 28.068 31.502 28.202 L 31.502 31.457 C 31.224 31.698 30.984 31.804 30.726 31.804 Z " fill="rgb(255,255,255)"/><path d=" M 36.225 31.267 C 36.024 31.478 35.775 31.593 35.497 31.593 C 35.038 31.593 34.798 31.114 34.798 30.214 C 34.798 29.294 35.076 28.797 35.573 28.797 C 35.793 28.797 35.966 28.873 36.224 29.074 L 36.224 31.267 L 36.225 31.267 Z  M 36.273 32.781 C 36.273 33.344 36.082 33.556 35.565 33.556 C 35.153 33.556 34.655 33.431 34.186 33.211 C 34.148 33.192 34.119 33.183 34.1 33.183 C 34.052 33.183 34.014 33.211 33.995 33.279 L 33.803 33.92 C 33.794 33.949 33.784 33.988 33.784 34.016 C 33.784 34.075 33.832 34.121 33.918 34.17 C 34.378 34.371 35.115 34.524 35.661 34.524 C 36.801 34.524 37.413 33.94 37.413 32.848 C 37.413 32.743 37.413 32.56 37.403 32.284 C 37.384 31.786 37.374 31.268 37.374 30.77 L 37.374 29.382 C 37.374 28.971 37.422 28.693 37.575 28.338 L 37.613 28.242 C 37.623 28.213 37.633 28.194 37.633 28.176 C 37.633 28.127 37.604 28.099 37.547 28.08 L 36.819 27.811 C 36.79 27.801 36.752 27.791 36.723 27.791 C 36.637 27.791 36.513 27.964 36.398 28.251 C 36.024 27.925 35.756 27.819 35.325 27.819 C 34.272 27.819 33.621 28.768 33.621 30.28 C 33.621 31.659 34.205 32.521 35.143 32.521 C 35.545 32.521 35.88 32.417 36.225 32.176 C 36.263 32.444 36.273 32.627 36.273 32.781 Z " fill="rgb(255,255,255)"/><path d=" M 39.807 26.001 C 39.807 25.886 39.778 25.838 39.711 25.838 C 39.691 25.838 39.673 25.847 39.625 25.847 L 38.764 26.03 C 38.63 26.058 38.62 26.068 38.62 26.204 L 38.62 32.419 C 38.62 32.562 38.639 32.581 38.783 32.581 L 39.645 32.581 C 39.789 32.581 39.808 32.561 39.808 32.419 L 39.808 29.163 C 40.114 28.875 40.325 28.779 40.602 28.779 C 40.975 28.779 41.119 28.99 41.119 29.555 L 41.119 32.418 C 41.119 32.561 41.138 32.58 41.282 32.58 L 42.144 32.58 C 42.287 32.58 42.307 32.56 42.307 32.418 L 42.307 29.285 C 42.307 28.806 42.259 28.578 42.115 28.328 C 41.933 28.012 41.55 27.82 41.091 27.82 C 40.603 27.82 40.191 28.003 39.808 28.367 L 39.808 26.001 L 39.807 26.001 Z " fill="rgb(255,255,255)"/><path d=" M 49.68 26.737 C 49.68 26.69 49.632 26.632 49.565 26.565 C 49.144 26.23 48.598 26.039 48.081 26.039 C 47.449 26.039 46.893 26.288 46.472 26.767 C 45.965 27.351 45.735 28.146 45.735 29.314 C 45.735 31.545 46.578 32.742 48.138 32.742 C 48.646 32.742 49.029 32.637 49.431 32.388 C 49.622 32.283 49.69 32.197 49.69 32.111 C 49.69 32.082 49.68 32.043 49.67 32.015 L 49.296 31.363 C 49.267 31.306 49.239 31.287 49.2 31.287 C 49.181 31.287 49.152 31.307 49.114 31.325 C 48.798 31.574 48.587 31.66 48.281 31.66 C 47.457 31.66 47.074 30.856 47.074 29.113 C 47.074 27.773 47.428 27.112 48.146 27.112 C 48.395 27.112 48.644 27.208 48.902 27.399 C 48.998 27.476 49.055 27.524 49.094 27.543 C 49.122 27.563 49.151 27.572 49.18 27.572 C 49.218 27.572 49.238 27.562 49.276 27.505 L 49.658 26.816 C 49.67 26.786 49.68 26.757 49.68 26.737 Z " fill="rgb(255,255,255)"/><path d=" M 51.382 30.29 C 51.382 29.198 51.602 28.759 52.149 28.759 C 52.694 28.759 52.915 29.208 52.915 30.28 C 52.915 31.352 52.694 31.803 52.149 31.803 C 51.602 31.804 51.382 31.362 51.382 30.29 Z  M 52.167 27.819 C 50.903 27.819 50.127 28.758 50.127 30.271 C 50.127 31.832 50.875 32.741 52.157 32.741 C 53.392 32.741 54.168 31.794 54.168 30.29 C 54.168 28.749 53.422 27.819 52.167 27.819 Z " fill="rgb(255,255,255)"/><path d=" M 56.676 31.804 C 56.255 31.804 56.112 31.583 56.112 30.96 L 56.112 30.874 L 56.112 27.984 C 56.112 27.879 56.083 27.829 56.007 27.829 C 55.987 27.829 55.959 27.839 55.931 27.839 L 55.07 28.03 C 54.945 28.06 54.925 28.069 54.925 28.204 L 54.925 30.923 C 54.925 31.804 54.973 32.024 55.241 32.341 C 55.462 32.6 55.825 32.741 56.294 32.741 C 56.831 32.741 57.165 32.598 57.587 32.196 C 57.654 32.522 57.759 32.704 57.864 32.704 L 57.923 32.704 C 57.942 32.694 57.95 32.694 57.97 32.694 L 58.745 32.511 C 58.812 32.502 58.832 32.483 58.832 32.435 C 58.832 32.416 58.822 32.387 58.812 32.348 C 58.668 32.08 58.63 31.869 58.63 31.41 L 58.63 27.982 C 58.63 27.877 58.61 27.828 58.543 27.828 C 58.534 27.828 58.515 27.828 58.496 27.838 L 58.457 27.838 L 57.586 28.029 C 57.461 28.058 57.452 28.068 57.452 28.202 L 57.452 31.457 C 57.174 31.698 56.936 31.804 56.676 31.804 Z " fill="rgb(255,255,255)"/><path d=" M 60.727 27.782 L 60.678 27.782 C 60.659 27.791 60.65 27.791 60.641 27.801 L 59.817 28.107 C 59.76 28.127 59.731 28.156 59.731 28.194 C 59.731 28.213 59.741 28.242 59.76 28.281 C 59.893 28.558 59.961 28.893 59.961 29.295 L 59.961 32.419 C 59.961 32.562 59.98 32.581 60.113 32.581 L 60.974 32.581 C 61.119 32.581 61.138 32.561 61.138 32.419 L 61.138 29.163 C 61.453 28.885 61.673 28.779 61.951 28.779 C 62.325 28.779 62.487 29.008 62.487 29.555 L 62.487 32.418 C 62.487 32.561 62.497 32.58 62.64 32.58 L 63.502 32.58 C 63.645 32.58 63.664 32.56 63.664 32.418 L 63.664 29.295 C 63.664 28.281 63.291 27.82 62.458 27.82 C 61.931 27.82 61.529 27.993 61.06 28.414 C 60.957 28.011 60.842 27.782 60.727 27.782 Z " fill="rgb(255,255,255)"/><path d=" M 67.544 31.487 C 67.525 31.487 67.486 31.507 67.447 31.535 C 67.189 31.719 66.94 31.804 66.691 31.804 C 66.041 31.804 65.753 31.344 65.753 30.31 C 65.753 29.249 66.04 28.759 66.681 28.759 C 66.95 28.759 67.132 28.835 67.466 29.074 C 67.505 29.102 67.534 29.112 67.562 29.112 C 67.591 29.112 67.62 29.092 67.639 29.046 L 67.964 28.462 C 67.984 28.433 67.993 28.385 67.993 28.357 C 67.993 28.308 67.954 28.261 67.888 28.204 C 67.591 27.965 67.141 27.82 66.671 27.82 C 65.341 27.82 64.526 28.788 64.526 30.368 C 64.526 31.871 65.254 32.742 66.528 32.742 C 66.891 32.742 67.245 32.666 67.524 32.532 C 67.753 32.427 67.878 32.321 67.878 32.225 C 67.878 32.206 67.868 32.177 67.84 32.12 L 67.619 31.555 C 67.602 31.507 67.582 31.487 67.544 31.487 Z " fill="rgb(255,255,255)"/><path d=" M 70.066 25.866 C 69.645 25.866 69.31 26.202 69.31 26.613 C 69.31 27.034 69.645 27.37 70.057 27.37 C 70.478 27.37 70.814 27.034 70.814 26.613 C 70.814 26.202 70.479 25.866 70.066 25.866 Z  M 69.502 32.417 C 69.502 32.56 69.522 32.58 69.665 32.58 L 70.526 32.58 C 70.66 32.58 70.679 32.56 70.679 32.417 L 70.679 28.146 C 70.679 28.002 70.659 27.984 70.526 27.984 L 68.793 27.984 C 68.659 27.984 68.64 28.003 68.64 28.146 L 68.64 28.682 C 68.64 28.826 68.66 28.845 68.793 28.845 L 69.502 28.845 L 69.502 32.417 Z " fill="rgb(255,255,255)"/><path d=" M 71.876 26.029 C 71.78 26.048 71.732 26.106 71.732 26.202 L 71.732 30.932 L 71.742 31.325 C 71.742 31.919 71.808 32.178 72.019 32.417 C 72.201 32.618 72.517 32.741 72.881 32.741 C 73.178 32.741 73.493 32.675 73.734 32.569 C 73.781 32.55 73.82 32.511 73.82 32.484 C 73.82 32.473 73.81 32.464 73.81 32.444 L 73.8 32.398 L 73.609 31.64 C 73.599 31.603 73.57 31.582 73.543 31.582 C 73.523 31.582 73.504 31.582 73.475 31.592 C 73.361 31.63 73.265 31.651 73.169 31.651 C 72.968 31.651 72.92 31.545 72.92 31.172 L 72.92 30.857 L 72.92 26.003 C 72.92 25.888 72.891 25.84 72.824 25.84 C 72.814 25.84 72.795 25.84 72.776 25.849 L 72.709 25.859 L 71.876 26.029 Z " fill="rgb(255,255,255)"/><path d=" M 25.443 18.745 L 24.696 16.398 C 24.648 16.264 24.629 16.245 24.485 16.245 L 23.566 16.245 C 23.403 16.245 23.384 16.273 23.375 16.436 L 23.107 22.439 L 23.107 22.497 C 23.107 22.602 23.146 22.631 23.289 22.631 L 24.045 22.631 C 24.208 22.631 24.236 22.611 24.236 22.44 L 24.313 19.281 L 24.313 18.983 L 24.313 18.572 L 24.313 18.218 L 24.303 17.816 C 24.437 18.439 24.581 19.023 24.648 19.252 L 25.166 21.062 C 25.213 21.215 25.223 21.225 25.376 21.225 L 25.941 21.225 C 26.094 21.225 26.104 21.215 26.151 21.072 L 26.755 19.167 C 26.851 18.842 26.946 18.478 27.1 17.817 L 27.09 18.191 L 27.09 18.497 C 27.081 18.632 27.081 18.747 27.081 18.833 C 27.081 18.948 27.081 19.053 27.09 19.158 L 27.148 22.442 C 27.158 22.605 27.177 22.633 27.349 22.633 L 28.191 22.633 C 28.325 22.633 28.373 22.605 28.373 22.499 L 28.373 22.432 L 28.077 16.438 C 28.067 16.275 28.038 16.247 27.885 16.247 L 27.004 16.247 C 26.851 16.247 26.841 16.256 26.794 16.4 L 26.008 18.737 C 25.922 18.976 25.855 19.216 25.769 19.541 L 25.692 19.819 C 25.586 19.329 25.491 18.917 25.443 18.745 Z " fill="rgb(255,255,255)"/><path d=" M 31.256 18.726 C 31.725 18.726 31.907 19.013 31.926 19.788 L 30.47 19.788 C 30.558 19.022 30.768 18.726 31.256 18.726 Z  M 32.951 20.65 C 33.123 20.65 33.162 20.602 33.162 20.411 C 33.162 18.725 32.549 17.874 31.314 17.874 C 30.088 17.874 29.284 18.87 29.284 20.373 C 29.284 21.943 30.012 22.796 31.362 22.796 C 31.774 22.796 32.137 22.729 32.521 22.586 C 32.904 22.441 33.038 22.356 33.038 22.24 C 33.038 22.212 33.028 22.193 33.009 22.135 L 32.77 21.589 C 32.75 21.531 32.712 21.503 32.665 21.503 C 32.636 21.503 32.598 21.513 32.55 21.541 C 32.186 21.732 31.832 21.828 31.477 21.828 C 30.797 21.828 30.472 21.445 30.453 20.65 L 32.951 20.65 Z " fill="rgb(255,255,255)"/><path d=" M 33.79 18.036 C 33.646 18.036 33.627 18.046 33.627 18.189 L 33.627 18.735 C 33.627 18.869 33.646 18.887 33.79 18.887 L 34.422 18.887 L 34.422 21.329 C 34.422 21.779 34.451 21.951 34.556 22.182 C 34.738 22.575 35.14 22.794 35.686 22.794 C 36.04 22.794 36.452 22.708 36.778 22.574 C 36.874 22.535 36.912 22.497 36.912 22.421 C 36.912 22.401 36.912 22.392 36.903 22.373 L 36.893 22.325 L 36.74 21.674 C 36.72 21.608 36.692 21.578 36.644 21.578 C 36.625 21.578 36.596 21.578 36.567 21.598 C 36.222 21.732 36.136 21.75 35.954 21.75 C 35.667 21.75 35.609 21.646 35.609 21.156 L 35.609 18.886 L 36.528 18.886 C 36.633 18.886 36.672 18.867 36.691 18.753 L 36.816 18.206 C 36.816 18.187 36.825 18.178 36.825 18.168 L 36.825 18.13 C 36.825 18.054 36.797 18.035 36.672 18.035 L 35.609 18.035 L 35.609 16.723 C 35.609 16.608 35.58 16.56 35.513 16.56 C 35.503 16.56 35.494 16.57 35.465 16.57 L 35.436 16.57 L 34.574 16.694 C 34.44 16.714 34.421 16.733 34.421 16.857 L 34.421 18.035 L 33.79 18.035 L 33.79 18.036 Z " fill="rgb(255,255,255)"/><path d=" M 38.422 17.883 C 38.393 17.883 38.365 17.893 38.317 17.902 L 37.561 18.17 C 37.503 18.19 37.475 18.228 37.475 18.275 C 37.475 18.294 37.485 18.323 37.495 18.352 L 37.552 18.485 C 37.705 18.84 37.772 19.166 37.772 19.644 L 37.772 22.469 C 37.772 22.612 37.792 22.631 37.925 22.631 L 38.787 22.631 C 38.931 22.631 38.95 22.611 38.95 22.469 L 38.95 19.375 C 39.238 19.06 39.458 18.926 39.658 18.926 C 39.763 18.926 39.917 18.954 40.032 19.012 C 40.06 19.022 40.079 19.022 40.089 19.022 C 40.128 19.022 40.147 19.002 40.175 18.936 L 40.452 18.179 C 40.462 18.151 40.471 18.102 40.471 18.083 C 40.471 17.978 40.222 17.872 39.945 17.872 C 39.533 17.872 39.265 18.025 38.873 18.494 L 38.777 18.599 C 38.681 18.161 38.537 17.883 38.422 17.883 Z " fill="rgb(255,255,255)"/><path d=" M 41.951 20.344 C 41.951 19.252 42.171 18.812 42.717 18.812 C 43.262 18.812 43.483 19.262 43.483 20.334 C 43.483 21.407 43.263 21.856 42.717 21.856 C 42.171 21.856 41.951 21.416 41.951 20.344 Z  M 42.736 17.873 C 41.472 17.873 40.696 18.811 40.696 20.325 C 40.696 21.886 41.443 22.795 42.726 22.795 C 43.961 22.795 44.737 21.847 44.737 20.344 C 44.737 18.802 43.991 17.873 42.736 17.873 Z " fill="rgb(255,255,255)"/><path d=" M 47.771 18.811 C 48.297 18.811 48.528 19.271 48.528 20.295 C 48.528 21.492 48.317 21.895 47.695 21.895 C 47.456 21.895 47.293 21.846 47.053 21.722 L 47.053 19.156 C 47.331 18.907 47.522 18.811 47.771 18.811 Z  M 46.651 17.873 C 46.632 17.873 46.613 17.883 46.565 17.902 L 45.761 18.247 C 45.684 18.275 45.665 18.294 45.665 18.343 C 45.665 18.363 45.674 18.381 45.684 18.409 C 45.828 18.763 45.876 18.965 45.876 19.329 L 45.876 24.442 C 45.876 24.556 45.895 24.594 45.962 24.594 C 45.972 24.594 46.02 24.594 46.048 24.585 L 46.92 24.402 C 47.045 24.374 47.054 24.365 47.054 24.231 L 47.054 22.545 C 47.389 22.727 47.629 22.794 48.002 22.794 C 49.142 22.794 49.707 21.95 49.707 20.247 C 49.707 18.705 49.142 17.872 48.098 17.872 C 47.639 17.872 47.294 18.016 46.91 18.361 C 46.843 18.074 46.737 17.873 46.651 17.873 Z " fill="rgb(255,255,255)"/><path d=" M 51.716 20.344 C 51.716 19.252 51.936 18.812 52.482 18.812 C 53.028 18.812 53.249 19.262 53.249 20.334 C 53.249 21.407 53.028 21.856 52.482 21.856 C 51.936 21.856 51.716 21.416 51.716 20.344 Z  M 52.501 17.873 C 51.236 17.873 50.461 18.811 50.461 20.325 C 50.461 21.886 51.208 22.795 52.491 22.795 C 53.726 22.795 54.502 21.847 54.502 20.344 C 54.502 18.802 53.756 17.873 52.501 17.873 Z " fill="rgb(255,255,255)"/><path d=" M 55.697 16.083 C 55.601 16.102 55.554 16.159 55.554 16.255 L 55.554 20.985 L 55.563 21.378 C 55.563 21.972 55.63 22.23 55.841 22.47 C 56.023 22.671 56.338 22.795 56.702 22.795 C 56.999 22.795 57.315 22.728 57.554 22.624 C 57.603 22.603 57.641 22.566 57.641 22.536 C 57.641 22.527 57.632 22.518 57.632 22.499 L 57.621 22.45 L 57.431 21.694 C 57.421 21.655 57.392 21.636 57.363 21.636 C 57.344 21.636 57.326 21.636 57.297 21.646 C 57.182 21.685 57.086 21.704 56.99 21.704 C 56.789 21.704 56.741 21.6 56.741 21.225 L 56.741 20.909 L 56.741 16.054 C 56.741 15.94 56.713 15.891 56.645 15.891 C 56.636 15.891 56.617 15.891 56.597 15.901 L 56.531 15.91 L 55.697 16.083 Z " fill="rgb(255,255,255)"/><path d=" M 59.098 15.92 C 58.676 15.92 58.341 16.255 58.341 16.667 C 58.341 17.088 58.676 17.424 59.088 17.424 C 59.51 17.424 59.844 17.089 59.844 16.667 C 59.844 16.255 59.51 15.92 59.098 15.92 Z  M 58.533 22.47 C 58.533 22.613 58.552 22.632 58.695 22.632 L 59.556 22.632 C 59.691 22.632 59.71 22.612 59.71 22.47 L 59.71 18.199 C 59.71 18.056 59.69 18.037 59.556 18.037 L 57.824 18.037 C 57.689 18.037 57.67 18.057 57.67 18.199 L 57.67 18.736 C 57.67 18.88 57.69 18.898 57.824 18.898 L 58.533 18.898 L 58.533 22.47 Z " fill="rgb(255,255,255)"/><path d=" M 60.833 18.036 C 60.689 18.036 60.67 18.046 60.67 18.189 L 60.67 18.735 C 60.67 18.869 60.69 18.887 60.833 18.887 L 61.465 18.887 L 61.465 21.329 C 61.465 21.779 61.494 21.951 61.6 22.182 C 61.782 22.575 62.184 22.794 62.729 22.794 C 63.084 22.794 63.496 22.708 63.821 22.574 C 63.918 22.535 63.956 22.497 63.956 22.421 C 63.956 22.401 63.956 22.392 63.946 22.373 L 63.936 22.325 L 63.784 21.674 C 63.764 21.608 63.735 21.578 63.687 21.578 C 63.668 21.578 63.639 21.578 63.61 21.598 C 63.266 21.732 63.18 21.75 62.998 21.75 C 62.711 21.75 62.653 21.646 62.653 21.156 L 62.653 18.886 L 63.573 18.886 C 63.678 18.886 63.716 18.867 63.735 18.753 L 63.86 18.206 C 63.86 18.187 63.87 18.178 63.87 18.168 L 63.87 18.13 C 63.87 18.054 63.841 18.035 63.716 18.035 L 62.654 18.035 L 62.654 16.723 C 62.654 16.608 62.625 16.56 62.558 16.56 C 62.548 16.56 62.538 16.57 62.51 16.57 L 62.48 16.57 L 61.618 16.694 C 61.484 16.714 61.465 16.733 61.465 16.857 L 61.465 18.035 L 60.833 18.035 L 60.833 18.036 Z " fill="rgb(255,255,255)"/><path d=" M 66.873 21.569 C 66.653 21.818 66.414 21.933 66.165 21.933 C 65.83 21.933 65.571 21.655 65.571 21.291 C 65.571 20.773 65.945 20.544 66.777 20.544 L 66.873 20.544 L 66.873 21.569 L 66.873 21.569 Z  M 66.797 19.778 C 66.031 19.788 65.657 19.855 65.236 20.047 C 64.71 20.286 64.451 20.717 64.451 21.359 C 64.451 22.221 64.996 22.767 65.849 22.767 C 66.328 22.767 66.662 22.613 67.036 22.23 C 67.141 22.613 67.228 22.787 67.324 22.787 C 67.343 22.787 67.39 22.777 67.429 22.758 L 68.156 22.461 C 68.205 22.441 68.234 22.403 68.234 22.365 C 68.234 22.345 68.224 22.307 68.205 22.27 C 68.052 21.954 67.984 21.676 67.984 21.264 L 67.984 19.368 C 67.984 19.09 67.974 18.937 67.927 18.764 C 67.763 18.19 67.228 17.873 66.394 17.873 C 65.935 17.873 65.476 17.959 65.074 18.102 C 64.873 18.179 64.804 18.227 64.804 18.313 C 64.804 18.333 64.814 18.362 64.824 18.408 L 65.025 18.973 C 65.045 19.04 65.074 19.059 65.121 19.059 C 65.141 19.059 65.188 19.049 65.217 19.04 C 65.649 18.867 65.974 18.79 66.252 18.79 C 66.731 18.79 66.873 18.953 66.873 19.489 L 66.873 19.776 L 66.797 19.776 L 66.797 19.778 Z " fill="rgb(255,255,255)"/><path d=" M 70.029 17.835 L 69.98 17.835 C 69.96 17.845 69.952 17.845 69.942 17.854 L 69.119 18.161 C 69.061 18.18 69.033 18.208 69.033 18.247 C 69.033 18.266 69.043 18.294 69.061 18.333 C 69.195 18.61 69.262 18.946 69.262 19.349 L 69.262 22.47 C 69.262 22.613 69.281 22.632 69.415 22.632 L 70.276 22.632 C 70.421 22.632 70.438 22.612 70.438 22.47 L 70.438 19.214 C 70.754 18.937 70.975 18.831 71.252 18.831 C 71.626 18.831 71.789 19.06 71.789 19.606 L 71.789 22.469 C 71.789 22.612 71.799 22.631 71.941 22.631 L 72.803 22.631 C 72.947 22.631 72.966 22.611 72.966 22.469 L 72.966 19.349 C 72.966 18.333 72.592 17.873 71.759 17.873 C 71.233 17.873 70.83 18.046 70.361 18.467 C 70.258 18.064 70.143 17.835 70.029 17.835 Z " fill="rgb(255,255,255)"/></svg>