<?xml version="1.0" standalone="no"?><!-- Generator: Gravit.io --><svg xmlns="http://www.w3.org/2000/svg" xmlns:xlink="http://www.w3.org/1999/xlink" style="isolation:isolate" viewBox="0 0 1016 128" width="1016" height="128"><path d=" M 50 126.35 L 50 69.556 L 55.835 69.556 C 59.015 69.556 61.527 70.727 63.535 73.574 L 96.897 119.188 C 87.39 124.787 76.312 128 64.489 128 C 59.507 128 54.656 127.429 50 126.35 Z " fill="rgb(255,255,255)" fill-opacity="0.8"/><path d=" M 28 11.062 C 11.102 22.587 0 41.993 0 63.971 C 0 85.949 11.102 105.355 28 116.88 L 28 11.062 Z " fill="rgb(255,255,255)" fill-opacity="0.2"/><path d=" M 66 51.911 C 76.101 51.007 84 43.327 84 34 C 84 24.673 76.101 16.993 66 16.089 L 66 16 L 64 16 L 64 16 L 50 16 L 50 21.15 L 50 46.85 L 50 52 L 64 52 L 66 52 L 66 51.911 Z " fill="rgb(255,255,255)" fill-opacity="0.8"/><path d=" M 82.219 64.899 L 113.097 105.038 C 122.398 93.925 128 79.611 128 64 C 128 32.929 105.811 7 76.424 1.219 C 92.442 5.148 104.222 18.346 104.222 34 C 104.222 47.699 95.201 59.516 82.219 64.899 Z " fill="rgb(255,255,255)"/><path d=" M 199.823 73.79 L 206.497 91.281 L 196.065 91.281 L 189.084 73.1 L 189.084 73.1 Q 188.163 70.568 186.245 69.571 L 186.245 69.571 L 186.245 69.571 Q 184.328 68.574 181.259 68.574 L 181.259 68.574 L 171.363 68.574 L 171.363 91.281 L 161.544 91.281 L 161.544 36.662 L 184.941 36.662 L 184.941 36.662 Q 194.223 36.662 199.056 40.727 L 199.056 40.727 L 199.056 40.727 Q 203.889 44.793 203.889 52.388 L 203.889 52.388 L 203.889 52.388 Q 203.889 57.834 201.012 61.631 L 201.012 61.631 L 201.012 61.631 Q 198.136 65.429 192.843 67.04 L 192.843 67.04 L 192.843 67.04 Q 197.676 68.037 199.823 73.79 L 199.823 73.79 Z  M 171.21 60.903 L 183.56 60.903 L 183.56 60.903 Q 189.16 60.903 191.845 58.831 L 191.845 58.831 L 191.845 58.831 Q 194.53 56.76 194.53 52.541 L 194.53 52.541 L 194.53 52.541 Q 194.53 48.399 191.884 46.366 L 191.884 46.366 L 191.884 46.366 Q 189.237 44.333 183.56 44.333 L 183.56 44.333 L 171.21 44.333 L 171.21 60.903 Z  M 239.637 91.971 L 239.637 91.971 Q 231.736 91.971 225.867 88.557 L 225.867 88.557 L 225.867 88.557 Q 219.999 85.144 216.815 78.815 L 216.815 78.815 L 216.815 78.815 Q 213.632 72.486 213.632 63.894 L 213.632 63.894 L 213.632 63.894 Q 213.632 55.379 216.777 49.051 L 216.777 49.051 L 216.777 49.051 Q 219.922 42.722 225.791 39.347 L 225.791 39.347 L 225.791 39.347 Q 231.659 35.971 239.637 35.971 L 239.637 35.971 L 239.637 35.971 Q 247.615 35.971 253.484 39.347 L 253.484 39.347 L 253.484 39.347 Q 259.352 42.722 262.459 49.051 L 262.459 49.051 L 262.459 49.051 Q 265.566 55.379 265.566 63.894 L 265.566 63.894 L 265.566 63.894 Q 265.566 72.486 262.421 78.815 L 262.421 78.815 L 262.421 78.815 Q 259.276 85.144 253.445 88.557 L 253.445 88.557 L 253.445 88.557 Q 247.615 91.971 239.637 91.971 L 239.637 91.971 Z  M 239.637 84.07 L 239.637 84.07 Q 247.232 84.07 251.451 78.853 L 251.451 78.853 L 251.451 78.853 Q 255.67 73.637 255.67 63.894 L 255.67 63.894 L 255.67 63.894 Q 255.67 54.229 251.451 49.051 L 251.451 49.051 L 251.451 49.051 Q 247.232 43.873 239.637 43.873 L 239.637 43.873 L 239.637 43.873 Q 232.043 43.873 227.823 49.012 L 227.823 49.012 L 227.823 49.012 Q 223.604 54.152 223.604 63.894 L 223.604 63.894 L 223.604 63.894 Q 223.604 73.637 227.823 78.853 L 227.823 78.853 L 227.823 78.853 Q 232.043 84.07 239.637 84.07 L 239.637 84.07 Z  M 298.476 91.281 L 288.503 91.281 L 288.503 44.793 L 270.706 44.793 L 270.706 36.662 L 316.349 36.662 L 316.349 44.793 L 298.476 44.793 L 298.476 91.281 Z  M 360.919 59.522 L 360.919 36.662 L 370.739 36.662 L 370.739 91.281 L 360.919 91.281 L 360.919 67.577 L 332.919 67.577 L 332.919 91.281 L 323.177 91.281 L 323.177 36.662 L 332.919 36.662 L 332.919 59.522 L 360.919 59.522 Z  M 419.067 91.281 L 382.552 91.281 L 382.552 36.662 L 419.067 36.662 L 419.067 44.486 L 392.218 44.486 L 392.218 59.599 L 417.456 59.599 L 417.456 67.423 L 392.218 67.423 L 392.218 83.456 L 419.067 83.456 L 419.067 91.281 Z  M 466.475 73.79 L 473.149 91.281 L 462.717 91.281 L 455.736 73.1 L 455.736 73.1 Q 454.815 70.568 452.897 69.571 L 452.897 69.571 L 452.897 69.571 Q 450.98 68.574 447.911 68.574 L 447.911 68.574 L 438.015 68.574 L 438.015 91.281 L 428.196 91.281 L 428.196 36.662 L 451.593 36.662 L 451.593 36.662 Q 460.876 36.662 465.708 40.727 L 465.708 40.727 L 465.708 40.727 Q 470.541 44.793 470.541 52.388 L 470.541 52.388 L 470.541 52.388 Q 470.541 57.834 467.665 61.631 L 467.665 61.631 L 467.665 61.631 Q 464.788 65.429 459.495 67.04 L 459.495 67.04 L 459.495 67.04 Q 464.328 68.037 466.475 73.79 L 466.475 73.79 Z  M 437.862 60.903 L 450.213 60.903 L 450.213 60.903 Q 455.812 60.903 458.497 58.831 L 458.497 58.831 L 458.497 58.831 Q 461.182 56.76 461.182 52.541 L 461.182 52.541 L 461.182 52.541 Q 461.182 48.399 458.536 46.366 L 458.536 46.366 L 458.536 46.366 Q 455.889 44.333 450.213 44.333 L 450.213 44.333 L 437.862 44.333 L 437.862 60.903 Z  M 519.791 59.522 L 519.791 36.662 L 529.61 36.662 L 529.61 91.281 L 519.791 91.281 L 519.791 67.577 L 491.791 67.577 L 491.791 91.281 L 482.048 91.281 L 482.048 36.662 L 491.791 36.662 L 491.791 59.522 L 519.791 59.522 Z  M 593.051 91.281 L 583.155 91.281 L 577.708 78.47 L 551.013 78.47 L 545.489 91.281 L 535.517 91.281 L 560.218 36.662 L 568.273 36.662 L 593.051 91.281 Z  M 564.36 47.401 L 554.311 70.799 L 574.41 70.799 L 564.36 47.401 Z  M 625.73 79.39 L 644.371 36.662 L 652.196 36.662 L 652.196 91.281 L 643.451 91.281 L 643.451 57.374 L 628.952 91.281 L 622.432 91.281 L 607.856 57.757 L 607.856 91.281 L 599.111 91.281 L 599.111 36.662 L 606.936 36.662 L 625.73 79.39 Z  M 662.475 91.281 L 662.475 80.541 L 673.215 80.541 L 673.215 91.281 L 662.475 91.281 Z  M 708.273 61.747 L 728.985 61.747 L 728.985 87.982 L 728.985 87.982 Q 725.226 89.823 719.933 90.897 L 719.933 90.897 L 719.933 90.897 Q 714.64 91.971 709.117 91.971 L 709.117 91.971 L 709.117 91.971 Q 700.678 91.971 694.465 88.596 L 694.465 88.596 L 694.465 88.596 Q 688.251 85.22 684.952 78.93 L 684.952 78.93 L 684.952 78.93 Q 681.654 72.64 681.654 63.894 L 681.654 63.894 L 681.654 63.894 Q 681.654 55.303 684.952 49.012 L 684.952 49.012 L 684.952 49.012 Q 688.251 42.722 694.349 39.347 L 694.349 39.347 L 694.349 39.347 Q 700.448 35.971 708.656 35.971 L 708.656 35.971 L 708.656 35.971 Q 714.41 35.971 719.434 37.659 L 719.434 37.659 L 719.434 37.659 Q 724.459 39.347 727.834 42.415 L 727.834 42.415 L 724.459 49.626 L 724.459 49.626 Q 720.623 46.634 716.941 45.33 L 716.941 45.33 L 716.941 45.33 Q 713.259 44.026 708.886 44.026 L 708.886 44.026 L 708.886 44.026 Q 700.448 44.026 696.114 49.089 L 696.114 49.089 L 696.114 49.089 Q 691.78 54.152 691.78 63.894 L 691.78 63.894 L 691.78 63.894 Q 691.78 73.944 696.229 79.045 L 696.229 79.045 L 696.229 79.045 Q 700.678 84.147 709.5 84.147 L 709.5 84.147 L 709.5 84.147 Q 714.87 84.147 720.086 82.689 L 720.086 82.689 L 720.086 68.881 L 708.273 68.881 L 708.273 61.747 Z  M 764.349 91.971 L 764.349 91.971 Q 756.448 91.971 750.58 88.557 L 750.58 88.557 L 750.58 88.557 Q 744.711 85.144 741.528 78.815 L 741.528 78.815 L 741.528 78.815 Q 738.344 72.486 738.344 63.894 L 738.344 63.894 L 738.344 63.894 Q 738.344 55.379 741.489 49.051 L 741.489 49.051 L 741.489 49.051 Q 744.634 42.722 750.503 39.347 L 750.503 39.347 L 750.503 39.347 Q 756.371 35.971 764.349 35.971 L 764.349 35.971 L 764.349 35.971 Q 772.328 35.971 778.196 39.347 L 778.196 39.347 L 778.196 39.347 Q 784.065 42.722 787.171 49.051 L 787.171 49.051 L 787.171 49.051 Q 790.278 55.379 790.278 63.894 L 790.278 63.894 L 790.278 63.894 Q 790.278 72.486 787.133 78.815 L 787.133 78.815 L 787.133 78.815 Q 783.988 85.144 778.158 88.557 L 778.158 88.557 L 778.158 88.557 Q 772.328 91.971 764.349 91.971 L 764.349 91.971 Z  M 764.349 84.07 L 764.349 84.07 Q 771.944 84.07 776.163 78.853 L 776.163 78.853 L 776.163 78.853 Q 780.382 73.637 780.382 63.894 L 780.382 63.894 L 780.382 63.894 Q 780.382 54.229 776.163 49.051 L 776.163 49.051 L 776.163 49.051 Q 771.944 43.873 764.349 43.873 L 764.349 43.873 L 764.349 43.873 Q 756.755 43.873 752.536 49.012 L 752.536 49.012 L 752.536 49.012 Q 748.317 54.152 748.317 63.894 L 748.317 63.894 L 748.317 63.894 Q 748.317 73.637 752.536 78.853 L 752.536 78.853 L 752.536 78.853 Q 756.755 84.07 764.349 84.07 L 764.349 84.07 Z  M 822.267 78.853 L 840.448 36.662 L 850.497 36.662 L 826.18 91.281 L 818.125 91.281 L 793.807 36.662 L 804.086 36.662 L 822.267 78.853 Z  M 854.026 91.281 L 854.026 80.541 L 864.766 80.541 L 864.766 91.281 L 854.026 91.281 Z  M 897.522 91.971 L 897.522 91.971 Q 886.245 91.971 880.454 86.179 L 880.454 86.179 L 880.454 86.179 Q 874.662 80.388 874.662 69.188 L 874.662 69.188 L 874.662 36.662 L 884.404 36.662 L 884.404 69.725 L 884.404 69.725 Q 884.404 76.782 887.703 80.426 L 887.703 80.426 L 887.703 80.426 Q 891.002 84.07 897.522 84.07 L 897.522 84.07 L 897.522 84.07 Q 903.889 84.07 907.226 80.388 L 907.226 80.388 L 907.226 80.388 Q 910.563 76.705 910.563 69.725 L 910.563 69.725 L 910.563 36.662 L 920.306 36.662 L 920.306 69.188 L 920.306 69.188 Q 920.306 80.311 914.476 86.141 L 914.476 86.141 L 914.476 86.141 Q 908.645 91.971 897.522 91.971 L 897.522 91.971 Z  M 951.374 62.897 L 979.144 91.281 L 967.023 91.281 L 941.632 65.736 L 941.632 91.281 L 931.736 91.281 L 931.736 36.662 L 941.632 36.662 L 941.632 61.133 L 966.026 36.662 L 977.917 36.662 L 951.374 62.897 Z " fill-rule="evenodd" fill="rgb(255,255,255)"/></svg>