<?xml version="1.0" standalone="no"?><!-- Generator: Gravit.io --><svg xmlns="http://www.w3.org/2000/svg" xmlns:xlink="http://www.w3.org/1999/xlink" style="isolation:isolate" viewBox="0 0 184 48" width="184" height="48"><path d=" M 11.25 3.654 C 4.494 7.902 0 15.424 0 23.986 C 0 32.549 4.494 40.071 11.25 44.319 L 11.25 27.747 L 11.25 20.247 L 11.25 6.747 L 11.25 3.654 Z " fill="rgb(255,255,255)" fill-opacity="0.4"/><path d=" M 31.884 1.315 C 41.263 4.579 48 13.502 48 23.986 C 48 30.033 45.759 35.56 42.064 39.782 L 31.622 25.83 C 32.616 25.259 33.545 24.569 34.387 23.772 C 37.238 21.109 38.887 17.397 39 13.497 C 38.887 9.597 37.238 5.884 34.387 3.222 C 33.619 2.495 32.779 1.857 31.884 1.315 Z " fill="rgb(255,255,255)"/><g opacity="0.8"><path d=" M 36.298 44.596 C 32.701 46.749 28.494 47.986 24 47.986 C 22.197 47.986 20.44 47.787 18.75 47.409 L 18.75 27.747 L 18.75 27.747 L 21.335 27.747 C 22.81 27.84 24.132 28.539 25.086 29.614 L 36.298 44.596 Z " fill="rgb(255,255,255)"/></g><g opacity="0.8"><path d=" M 24.677 20.247 L 24.113 20.247 L 24 20.247 L 18.75 20.247 L 18.75 6.747 L 22.261 6.747 L 24.677 6.747 C 26.353 6.814 27.961 7.475 29.175 8.622 C 30.562 9.859 31.387 11.622 31.5 13.497 C 31.387 15.372 30.562 17.134 29.175 18.372 C 27.961 19.519 26.353 20.18 24.677 20.247 L 24.677 20.247 Z " fill="rgb(255,255,255)"/></g><path d=" M 67.383 19.807 L 69.456 25.345 L 66.888 25.345 L 64.79 19.76 L 64.79 19.76 Q 64.46 18.864 63.824 18.522 L 63.824 18.522 L 63.824 18.522 Q 63.188 18.181 62.08 18.181 L 62.08 18.181 L 58.404 18.181 L 58.404 25.345 L 56 25.345 L 56 8.566 L 62.905 8.566 L 62.905 8.566 Q 65.662 8.566 67.135 9.791 L 67.135 9.791 L 67.135 9.791 Q 68.608 11.016 68.608 13.302 L 68.608 13.302 L 68.608 13.302 Q 68.608 14.952 67.736 16.107 L 67.736 16.107 L 67.736 16.107 Q 66.864 17.262 65.262 17.733 L 65.262 17.733 L 65.262 17.733 Q 66.723 17.992 67.383 19.807 L 67.383 19.807 Z  M 58.404 16.225 L 62.622 16.225 L 62.622 16.225 Q 64.46 16.225 65.356 15.506 L 65.356 15.506 L 65.356 15.506 Q 66.251 14.787 66.251 13.35 L 66.251 13.35 L 66.251 13.35 Q 66.251 11.912 65.368 11.217 L 65.368 11.217 L 65.368 11.217 Q 64.484 10.522 62.622 10.522 L 62.622 10.522 L 58.404 10.522 L 58.404 16.225 Z  M 77.328 25.51 L 77.328 25.51 Q 75.584 25.51 74.264 24.756 L 74.264 24.756 L 74.264 24.756 Q 72.944 24.002 72.225 22.611 L 72.225 22.611 L 72.225 22.611 Q 71.507 21.221 71.507 19.359 L 71.507 19.359 L 71.507 19.359 Q 71.507 17.497 72.225 16.095 L 72.225 16.095 L 72.225 16.095 Q 72.944 14.693 74.264 13.939 L 74.264 13.939 L 74.264 13.939 Q 75.584 13.185 77.328 13.185 L 77.328 13.185 L 77.328 13.185 Q 79.048 13.185 80.368 13.939 L 80.368 13.939 L 80.368 13.939 Q 81.687 14.693 82.406 16.095 L 82.406 16.095 L 82.406 16.095 Q 83.125 17.497 83.125 19.359 L 83.125 19.359 L 83.125 19.359 Q 83.125 21.221 82.406 22.611 L 82.406 22.611 L 82.406 22.611 Q 81.687 24.002 80.368 24.756 L 80.368 24.756 L 80.368 24.756 Q 79.048 25.51 77.328 25.51 L 77.328 25.51 Z  M 77.304 23.625 L 77.304 23.625 Q 78.954 23.625 79.826 22.54 L 79.826 22.54 L 79.826 22.54 Q 80.698 21.456 80.698 19.359 L 80.698 19.359 L 80.698 19.359 Q 80.698 17.309 79.814 16.201 L 79.814 16.201 L 79.814 16.201 Q 78.93 15.093 77.328 15.093 L 77.328 15.093 L 77.328 15.093 Q 75.701 15.093 74.806 16.201 L 74.806 16.201 L 74.806 16.201 Q 73.91 17.309 73.91 19.359 L 73.91 19.359 L 73.91 19.359 Q 73.91 21.456 74.794 22.54 L 74.794 22.54 L 74.794 22.54 Q 75.678 23.625 77.304 23.625 L 77.304 23.625 Z  M 92.269 15.306 L 88.993 15.306 L 88.993 21.268 L 88.993 21.268 Q 88.993 22.493 89.523 23 L 89.523 23 L 89.523 23 Q 90.053 23.507 90.996 23.507 L 90.996 23.507 L 90.996 23.507 Q 91.609 23.507 92.245 23.318 L 92.245 23.318 L 92.245 25.251 L 92.245 25.251 Q 91.467 25.51 90.478 25.51 L 90.478 25.51 L 90.478 25.51 Q 88.639 25.51 87.626 24.473 L 87.626 24.473 L 87.626 24.473 Q 86.613 23.436 86.613 21.456 L 86.613 21.456 L 86.613 15.306 L 84.303 15.306 L 84.303 13.467 L 86.613 13.467 L 86.613 10.498 L 88.993 9.673 L 88.993 13.467 L 92.269 13.467 L 92.269 15.306 Z  M 100.776 13.185 L 100.776 13.185 Q 105.042 13.185 105.042 17.945 L 105.042 17.945 L 105.042 25.345 L 102.661 25.345 L 102.661 18.086 L 102.661 18.086 Q 102.661 16.531 102.06 15.824 L 102.06 15.824 L 102.06 15.824 Q 101.46 15.117 100.14 15.117 L 100.14 15.117 L 100.14 15.117 Q 98.632 15.117 97.724 16.06 L 97.724 16.06 L 97.724 16.06 Q 96.817 17.002 96.817 18.581 L 96.817 18.581 L 96.817 25.345 L 94.46 25.345 L 94.46 8 L 96.817 8 L 96.817 15.306 L 96.817 15.306 Q 97.406 14.269 98.443 13.727 L 98.443 13.727 L 98.443 13.727 Q 99.48 13.185 100.776 13.185 L 100.776 13.185 Z  M 118.569 19.053 L 118.569 19.453 L 110.085 19.453 L 110.085 19.453 Q 110.203 23.625 113.879 23.625 L 113.879 23.625 L 113.879 23.625 Q 115.929 23.625 117.626 22.281 L 117.626 22.281 L 118.357 23.978 L 118.357 23.978 Q 117.555 24.685 116.318 25.097 L 116.318 25.097 L 116.318 25.097 Q 115.081 25.51 113.832 25.51 L 113.832 25.51 L 113.832 25.51 Q 110.98 25.51 109.354 23.872 L 109.354 23.872 L 109.354 23.872 Q 107.728 22.234 107.728 19.383 L 107.728 19.383 L 107.728 19.383 Q 107.728 17.568 108.447 16.154 L 108.447 16.154 L 108.447 16.154 Q 109.166 14.74 110.462 13.962 L 110.462 13.962 L 110.462 13.962 Q 111.758 13.185 113.408 13.185 L 113.408 13.185 L 113.408 13.185 Q 115.811 13.185 117.19 14.74 L 117.19 14.74 L 117.19 14.74 Q 118.569 16.295 118.569 19.053 L 118.569 19.053 Z  M 113.455 14.952 L 113.455 14.952 Q 112.112 14.952 111.263 15.753 L 111.263 15.753 L 111.263 15.753 Q 110.415 16.555 110.179 18.039 L 110.179 18.039 L 116.471 18.039 L 116.471 18.039 Q 116.33 16.531 115.552 15.742 L 115.552 15.742 L 115.552 15.742 Q 114.775 14.952 113.455 14.952 L 113.455 14.952 Z  M 127.218 13.185 L 127.218 13.185 Q 127.76 13.185 128.349 13.35 L 128.349 13.35 L 128.302 15.518 L 128.302 15.518 Q 127.665 15.282 126.911 15.282 L 126.911 15.282 L 126.911 15.282 Q 125.285 15.282 124.472 16.26 L 124.472 16.26 L 124.472 16.26 Q 123.659 17.238 123.659 18.723 L 123.659 18.723 L 123.659 25.345 L 121.302 25.345 L 121.302 16.814 L 121.302 16.814 Q 121.302 14.952 121.114 13.467 L 121.114 13.467 L 123.329 13.467 L 123.541 15.612 L 123.541 15.612 Q 124.013 14.434 125.002 13.809 L 125.002 13.809 L 125.002 13.809 Q 125.992 13.185 127.218 13.185 L 127.218 13.185 Z  M 136.479 13.185 L 136.479 13.185 Q 140.745 13.185 140.745 17.945 L 140.745 17.945 L 140.745 25.345 L 138.364 25.345 L 138.364 18.086 L 138.364 18.086 Q 138.364 16.531 137.764 15.824 L 137.764 15.824 L 137.764 15.824 Q 137.163 15.117 135.843 15.117 L 135.843 15.117 L 135.843 15.117 Q 134.335 15.117 133.427 16.06 L 133.427 16.06 L 133.427 16.06 Q 132.52 17.002 132.52 18.581 L 132.52 18.581 L 132.52 25.345 L 130.163 25.345 L 130.163 8 L 132.52 8 L 132.52 15.306 L 132.52 15.306 Q 133.109 14.269 134.146 13.727 L 134.146 13.727 L 134.146 13.727 Q 135.183 13.185 136.479 13.185 L 136.479 13.185 Z  M 152.646 13.467 L 155.002 13.467 L 155.002 25.345 L 152.646 25.345 L 152.646 23.318 L 152.646 23.318 Q 152.127 24.379 151.102 24.944 L 151.102 24.944 L 151.102 24.944 Q 150.077 25.51 148.71 25.51 L 148.71 25.51 L 148.71 25.51 Q 147.131 25.51 145.941 24.756 L 145.941 24.756 L 145.941 24.756 Q 144.751 24.002 144.091 22.623 L 144.091 22.623 L 144.091 22.623 Q 143.431 21.244 143.431 19.406 L 143.431 19.406 L 143.431 19.406 Q 143.431 17.568 144.103 16.154 L 144.103 16.154 L 144.103 16.154 Q 144.775 14.74 145.976 13.962 L 145.976 13.962 L 145.976 13.962 Q 147.178 13.185 148.71 13.185 L 148.71 13.185 L 148.71 13.185 Q 150.077 13.185 151.09 13.762 L 151.09 13.762 L 151.09 13.762 Q 152.104 14.339 152.646 15.4 L 152.646 15.4 L 152.646 13.467 Z  M 149.276 23.625 L 149.276 23.625 Q 150.878 23.625 151.762 22.505 L 151.762 22.505 L 151.762 22.505 Q 152.646 21.386 152.646 19.359 L 152.646 19.359 L 152.646 19.359 Q 152.646 17.309 151.762 16.201 L 151.762 16.201 L 151.762 16.201 Q 150.878 15.093 149.252 15.093 L 149.252 15.093 L 149.252 15.093 Q 147.65 15.093 146.742 16.236 L 146.742 16.236 L 146.742 16.236 Q 145.835 17.379 145.835 19.406 L 145.835 19.406 L 145.835 19.406 Q 145.835 21.409 146.742 22.517 L 146.742 22.517 L 146.742 22.517 Q 147.65 23.625 149.276 23.625 L 149.276 23.625 Z  M 172.041 13.185 L 172.041 13.185 Q 176 13.185 176 17.945 L 176 17.945 L 176 25.345 L 173.62 25.345 L 173.62 18.063 L 173.62 18.063 Q 173.62 16.531 173.09 15.824 L 173.09 15.824 L 173.09 15.824 Q 172.559 15.117 171.381 15.117 L 171.381 15.117 L 171.381 15.117 Q 170.014 15.117 169.225 16.06 L 169.225 16.06 L 169.225 16.06 Q 168.435 17.002 168.435 18.628 L 168.435 18.628 L 168.435 25.345 L 166.055 25.345 L 166.055 18.063 L 166.055 18.063 Q 166.055 16.531 165.525 15.824 L 165.525 15.824 L 165.525 15.824 Q 164.995 15.117 163.816 15.117 L 163.816 15.117 L 163.816 15.117 Q 162.449 15.117 161.648 16.06 L 161.648 16.06 L 161.648 16.06 Q 160.847 17.002 160.847 18.628 L 160.847 18.628 L 160.847 25.345 L 158.49 25.345 L 158.49 16.814 L 158.49 16.814 Q 158.49 14.952 158.302 13.467 L 158.302 13.467 L 160.517 13.467 L 160.729 15.447 L 160.729 15.447 Q 161.247 14.363 162.214 13.774 L 162.214 13.774 L 162.214 13.774 Q 163.18 13.185 164.476 13.185 L 164.476 13.185 L 164.476 13.185 Q 167.233 13.185 168.082 15.471 L 168.082 15.471 L 168.082 15.471 Q 168.624 14.41 169.672 13.797 L 169.672 13.797 L 169.672 13.797 Q 170.721 13.185 172.041 13.185 L 172.041 13.185 Z " fill-rule="evenodd" fill="rgb(255,255,255)"/><path d=" M 150.175 36.471 L 150.175 36.471 Q 149.279 36.471 148.614 36.084 L 148.614 36.084 L 148.614 36.084 Q 147.948 35.697 147.592 34.984 L 147.592 34.984 L 147.592 34.984 Q 147.235 34.271 147.235 33.297 L 147.235 33.297 L 147.235 33.297 Q 147.235 32.331 147.592 31.618 L 147.592 31.618 L 147.592 31.618 Q 147.948 30.905 148.614 30.522 L 148.614 30.522 L 148.614 30.522 Q 149.279 30.139 150.175 30.139 L 150.175 30.139 L 150.175 30.139 Q 150.81 30.139 151.354 30.335 L 151.354 30.335 L 151.354 30.335 Q 151.897 30.531 152.271 30.905 L 152.271 30.905 L 151.958 31.566 L 151.958 31.566 Q 151.523 31.209 151.101 31.048 L 151.101 31.048 L 151.101 31.048 Q 150.68 30.887 150.184 30.887 L 150.184 30.887 L 150.184 30.887 Q 149.218 30.887 148.692 31.513 L 148.692 31.513 L 148.692 31.513 Q 148.166 32.14 148.166 33.297 L 148.166 33.297 L 148.166 33.297 Q 148.166 34.462 148.692 35.093 L 148.692 35.093 L 148.692 35.093 Q 149.218 35.723 150.184 35.723 L 150.184 35.723 L 150.184 35.723 Q 150.68 35.723 151.101 35.562 L 151.101 35.562 L 151.101 35.562 Q 151.523 35.402 151.958 35.045 L 151.958 35.045 L 152.271 35.706 L 152.271 35.706 Q 151.897 36.08 151.354 36.276 L 151.354 36.276 L 151.354 36.276 Q 150.81 36.471 150.175 36.471 L 150.175 36.471 Z  M 155.211 36.463 L 155.211 36.463 Q 154.568 36.463 154.081 36.184 L 154.081 36.184 L 154.081 36.184 Q 153.593 35.906 153.328 35.393 L 153.328 35.393 L 153.328 35.393 Q 153.063 34.88 153.063 34.193 L 153.063 34.193 L 153.063 34.193 Q 153.063 33.505 153.328 32.988 L 153.328 32.988 L 153.328 32.988 Q 153.593 32.47 154.081 32.192 L 154.081 32.192 L 154.081 32.192 Q 154.568 31.914 155.211 31.914 L 155.211 31.914 L 155.211 31.914 Q 155.846 31.914 156.333 32.192 L 156.333 32.192 L 156.333 32.192 Q 156.821 32.47 157.086 32.988 L 157.086 32.988 L 157.086 32.988 Q 157.351 33.505 157.351 34.193 L 157.351 34.193 L 157.351 34.193 Q 157.351 34.88 157.086 35.393 L 157.086 35.393 L 157.086 35.393 Q 156.821 35.906 156.333 36.184 L 156.333 36.184 L 156.333 36.184 Q 155.846 36.463 155.211 36.463 L 155.211 36.463 Z  M 155.203 35.767 L 155.203 35.767 Q 155.812 35.767 156.133 35.367 L 156.133 35.367 L 156.133 35.367 Q 156.455 34.967 156.455 34.193 L 156.455 34.193 L 156.455 34.193 Q 156.455 33.436 156.129 33.027 L 156.129 33.027 L 156.129 33.027 Q 155.803 32.618 155.211 32.618 L 155.211 32.618 L 155.211 32.618 Q 154.611 32.618 154.281 33.027 L 154.281 33.027 L 154.281 33.027 Q 153.95 33.436 153.95 34.193 L 153.95 34.193 L 153.95 34.193 Q 153.95 34.967 154.276 35.367 L 154.276 35.367 L 154.276 35.367 Q 154.602 35.767 155.203 35.767 L 155.203 35.767 Z  M 161.309 32.018 L 162.187 32.018 L 162.187 36.402 L 161.335 36.402 L 161.335 35.671 L 161.335 35.671 Q 161.126 36.054 160.761 36.258 L 160.761 36.258 L 160.761 36.258 Q 160.395 36.463 159.934 36.463 L 159.934 36.463 L 159.934 36.463 Q 158.351 36.463 158.351 34.706 L 158.351 34.706 L 158.351 32.018 L 159.221 32.018 L 159.221 34.697 L 159.221 34.697 Q 159.221 35.236 159.443 35.493 L 159.443 35.493 L 159.443 35.493 Q 159.665 35.749 160.117 35.749 L 160.117 35.749 L 160.117 35.749 Q 160.656 35.749 160.983 35.402 L 160.983 35.402 L 160.983 35.402 Q 161.309 35.054 161.309 34.48 L 161.309 34.48 L 161.309 32.018 Z  M 165.806 31.914 L 165.806 31.914 Q 167.38 31.914 167.38 33.671 L 167.38 33.671 L 167.38 36.402 L 166.502 36.402 L 166.502 33.723 L 166.502 33.723 Q 166.502 33.149 166.28 32.888 L 166.28 32.888 L 166.28 32.888 Q 166.058 32.627 165.571 32.627 L 165.571 32.627 L 165.571 32.627 Q 165.014 32.627 164.679 32.975 L 164.679 32.975 L 164.679 32.975 Q 164.344 33.323 164.344 33.905 L 164.344 33.905 L 164.344 36.402 L 163.475 36.402 L 163.475 33.253 L 163.475 33.253 Q 163.475 32.566 163.405 32.018 L 163.405 32.018 L 164.223 32.018 L 164.301 32.775 L 164.301 32.775 Q 164.51 32.357 164.905 32.135 L 164.905 32.135 L 164.905 32.135 Q 165.301 31.914 165.806 31.914 L 165.806 31.914 Z  M 170.538 36.463 L 170.538 36.463 Q 169.876 36.463 169.385 36.184 L 169.385 36.184 L 169.385 36.184 Q 168.894 35.906 168.633 35.397 L 168.633 35.397 L 168.633 35.397 Q 168.372 34.888 168.372 34.21 L 168.372 34.21 L 168.372 34.21 Q 168.372 33.531 168.646 33.01 L 168.646 33.01 L 168.646 33.01 Q 168.92 32.488 169.415 32.201 L 169.415 32.201 L 169.415 32.201 Q 169.911 31.914 170.572 31.914 L 170.572 31.914 L 170.572 31.914 Q 171.033 31.914 171.46 32.066 L 171.46 32.066 L 171.46 32.066 Q 171.886 32.218 172.147 32.479 L 172.147 32.479 L 171.877 33.114 L 171.877 33.114 Q 171.259 32.627 170.633 32.627 L 170.633 32.627 L 170.633 32.627 Q 169.998 32.627 169.642 33.04 L 169.642 33.04 L 169.642 33.04 Q 169.285 33.453 169.285 34.201 L 169.285 34.201 L 169.285 34.201 Q 169.285 34.949 169.642 35.354 L 169.642 35.354 L 169.642 35.354 Q 169.998 35.758 170.633 35.758 L 170.633 35.758 L 170.633 35.758 Q 171.277 35.758 171.877 35.271 L 171.877 35.271 L 172.147 35.906 L 172.147 35.906 Q 171.868 36.167 171.438 36.315 L 171.438 36.315 L 171.438 36.315 Q 171.007 36.463 170.538 36.463 L 170.538 36.463 Z  M 173.843 36.402 L 172.973 36.402 L 172.973 32.018 L 173.843 32.018 L 173.843 36.402 Z  M 172.895 31.026 L 172.895 30.104 L 173.912 30.104 L 173.912 31.026 L 172.895 31.026 Z  M 176 36.402 L 175.13 36.402 L 175.13 30 L 176 30 L 176 36.402 Z  M 113.852 33.21 L 113.852 33.21 Q 114.391 33.357 114.687 33.749 L 114.687 33.749 L 114.687 33.749 Q 114.982 34.14 114.982 34.714 L 114.982 34.714 L 114.982 34.714 Q 114.982 35.515 114.43 35.958 L 114.43 35.958 L 114.43 35.958 Q 113.878 36.402 112.886 36.402 L 112.886 36.402 L 110.207 36.402 L 110.207 30.209 L 112.799 30.209 L 112.799 30.209 Q 113.756 30.209 114.291 30.635 L 114.291 30.635 L 114.291 30.635 Q 114.826 31.061 114.826 31.827 L 114.826 31.827 L 114.826 31.827 Q 114.826 32.322 114.569 32.683 L 114.569 32.683 L 114.569 32.683 Q 114.313 33.044 113.852 33.21 L 113.852 33.21 Z  M 111.094 30.931 L 111.094 32.896 L 112.66 32.896 L 112.66 32.896 Q 113.956 32.896 113.956 31.896 L 113.956 31.896 L 113.956 31.896 Q 113.956 30.931 112.66 30.931 L 112.66 30.931 L 111.094 30.931 Z  M 112.799 35.68 L 112.799 35.68 Q 113.478 35.68 113.791 35.432 L 113.791 35.432 L 113.791 35.432 Q 114.104 35.184 114.104 34.662 L 114.104 34.662 L 114.104 34.662 Q 114.104 34.132 113.786 33.875 L 113.786 33.875 L 113.786 33.875 Q 113.469 33.618 112.799 33.618 L 112.799 33.618 L 111.094 33.618 L 111.094 35.68 L 112.799 35.68 Z  M 117.974 36.463 L 117.974 36.463 Q 117.331 36.463 116.844 36.184 L 116.844 36.184 L 116.844 36.184 Q 116.357 35.906 116.091 35.393 L 116.091 35.393 L 116.091 35.393 Q 115.826 34.88 115.826 34.193 L 115.826 34.193 L 115.826 34.193 Q 115.826 33.505 116.091 32.988 L 116.091 32.988 L 116.091 32.988 Q 116.357 32.47 116.844 32.192 L 116.844 32.192 L 116.844 32.192 Q 117.331 31.914 117.974 31.914 L 117.974 31.914 L 117.974 31.914 Q 118.609 31.914 119.097 32.192 L 119.097 32.192 L 119.097 32.192 Q 119.584 32.47 119.849 32.988 L 119.849 32.988 L 119.849 32.988 Q 120.114 33.505 120.114 34.193 L 120.114 34.193 L 120.114 34.193 Q 120.114 34.88 119.849 35.393 L 119.849 35.393 L 119.849 35.393 Q 119.584 35.906 119.097 36.184 L 119.097 36.184 L 119.097 36.184 Q 118.609 36.463 117.974 36.463 L 117.974 36.463 Z  M 117.966 35.767 L 117.966 35.767 Q 118.575 35.767 118.896 35.367 L 118.896 35.367 L 118.896 35.367 Q 119.218 34.967 119.218 34.193 L 119.218 34.193 L 119.218 34.193 Q 119.218 33.436 118.892 33.027 L 118.892 33.027 L 118.892 33.027 Q 118.566 32.618 117.974 32.618 L 117.974 32.618 L 117.974 32.618 Q 117.374 32.618 117.044 33.027 L 117.044 33.027 L 117.044 33.027 Q 116.713 33.436 116.713 34.193 L 116.713 34.193 L 116.713 34.193 Q 116.713 34.967 117.039 35.367 L 117.039 35.367 L 117.039 35.367 Q 117.366 35.767 117.966 35.767 L 117.966 35.767 Z  M 123.324 31.914 L 123.324 31.914 Q 123.524 31.914 123.741 31.974 L 123.741 31.974 L 123.724 32.775 L 123.724 32.775 Q 123.489 32.688 123.211 32.688 L 123.211 32.688 L 123.211 32.688 Q 122.611 32.688 122.311 33.049 L 122.311 33.049 L 122.311 33.049 Q 122.01 33.41 122.01 33.958 L 122.01 33.958 L 122.01 36.402 L 121.141 36.402 L 121.141 33.253 L 121.141 33.253 Q 121.141 32.566 121.071 32.018 L 121.071 32.018 L 121.889 32.018 L 121.967 32.81 L 121.967 32.81 Q 122.141 32.375 122.506 32.144 L 122.506 32.144 L 122.506 32.144 Q 122.872 31.914 123.324 31.914 L 123.324 31.914 Z  M 126.299 36.463 L 126.299 36.463 Q 125.655 36.463 125.168 36.184 L 125.168 36.184 L 125.168 36.184 Q 124.681 35.906 124.415 35.393 L 124.415 35.393 L 124.415 35.393 Q 124.15 34.88 124.15 34.193 L 124.15 34.193 L 124.15 34.193 Q 124.15 33.505 124.415 32.988 L 124.415 32.988 L 124.415 32.988 Q 124.681 32.47 125.168 32.192 L 125.168 32.192 L 125.168 32.192 Q 125.655 31.914 126.299 31.914 L 126.299 31.914 L 126.299 31.914 Q 126.934 31.914 127.421 32.192 L 127.421 32.192 L 127.421 32.192 Q 127.908 32.47 128.173 32.988 L 128.173 32.988 L 128.173 32.988 Q 128.438 33.505 128.438 34.193 L 128.438 34.193 L 128.438 34.193 Q 128.438 34.88 128.173 35.393 L 128.173 35.393 L 128.173 35.393 Q 127.908 35.906 127.421 36.184 L 127.421 36.184 L 127.421 36.184 Q 126.934 36.463 126.299 36.463 L 126.299 36.463 Z  M 126.29 35.767 L 126.29 35.767 Q 126.899 35.767 127.221 35.367 L 127.221 35.367 L 127.221 35.367 Q 127.542 34.967 127.542 34.193 L 127.542 34.193 L 127.542 34.193 Q 127.542 33.436 127.216 33.027 L 127.216 33.027 L 127.216 33.027 Q 126.89 32.618 126.299 32.618 L 126.299 32.618 L 126.299 32.618 Q 125.698 32.618 125.368 33.027 L 125.368 33.027 L 125.368 33.027 Q 125.037 33.436 125.037 34.193 L 125.037 34.193 L 125.037 34.193 Q 125.037 34.967 125.364 35.367 L 125.364 35.367 L 125.364 35.367 Q 125.69 35.767 126.29 35.767 L 126.29 35.767 Z  M 132.396 32.018 L 133.275 32.018 L 133.275 36.402 L 132.422 36.402 L 132.422 35.671 L 132.422 35.671 Q 132.213 36.054 131.848 36.258 L 131.848 36.258 L 131.848 36.258 Q 131.483 36.463 131.022 36.463 L 131.022 36.463 L 131.022 36.463 Q 129.439 36.463 129.439 34.706 L 129.439 34.706 L 129.439 32.018 L 130.309 32.018 L 130.309 34.697 L 130.309 34.697 Q 130.309 35.236 130.53 35.493 L 130.53 35.493 L 130.53 35.493 Q 130.752 35.749 131.204 35.749 L 131.204 35.749 L 131.204 35.749 Q 131.744 35.749 132.07 35.402 L 132.07 35.402 L 132.07 35.402 Q 132.396 35.054 132.396 34.48 L 132.396 34.48 L 132.396 32.018 Z  M 137.737 32.018 L 138.607 32.018 L 138.607 36.324 L 138.607 36.324 Q 138.607 37.324 138.08 37.833 L 138.08 37.833 L 138.08 37.833 Q 137.554 38.342 136.519 38.342 L 136.519 38.342 L 136.519 38.342 Q 135.519 38.342 134.771 37.907 L 134.771 37.907 L 134.919 37.219 L 134.919 37.219 Q 135.327 37.437 135.706 37.541 L 135.706 37.541 L 135.706 37.541 Q 136.084 37.646 136.51 37.646 L 136.51 37.646 L 136.51 37.646 Q 137.737 37.646 137.737 36.393 L 137.737 36.393 L 137.737 35.445 L 137.737 35.445 Q 137.537 35.828 137.154 36.05 L 137.154 36.05 L 137.154 36.05 Q 136.771 36.271 136.267 36.271 L 136.267 36.271 L 136.267 36.271 Q 135.693 36.271 135.245 36.002 L 135.245 36.002 L 135.245 36.002 Q 134.797 35.732 134.549 35.236 L 134.549 35.236 L 134.549 35.236 Q 134.301 34.741 134.301 34.097 L 134.301 34.097 L 134.301 34.097 Q 134.301 33.453 134.549 32.957 L 134.549 32.957 L 134.549 32.957 Q 134.797 32.462 135.245 32.188 L 135.245 32.188 L 135.245 32.188 Q 135.693 31.914 136.267 31.914 L 136.267 31.914 L 136.267 31.914 Q 136.771 31.914 137.154 32.127 L 137.154 32.127 L 137.154 32.127 Q 137.537 32.34 137.737 32.731 L 137.737 32.731 L 137.737 32.018 Z  M 136.467 35.567 L 136.467 35.567 Q 137.058 35.567 137.398 35.175 L 137.398 35.175 L 137.398 35.175 Q 137.737 34.784 137.737 34.097 L 137.737 34.097 L 137.737 34.097 Q 137.737 33.41 137.402 33.014 L 137.402 33.014 L 137.402 33.014 Q 137.067 32.618 136.467 32.618 L 136.467 32.618 L 136.467 32.618 Q 135.875 32.618 135.532 33.014 L 135.532 33.014 L 135.532 33.014 Q 135.188 33.41 135.188 34.097 L 135.188 34.097 L 135.188 34.097 Q 135.188 34.775 135.532 35.171 L 135.532 35.171 L 135.532 35.171 Q 135.875 35.567 136.467 35.567 L 136.467 35.567 Z  M 142.225 31.914 L 142.225 31.914 Q 143.799 31.914 143.799 33.671 L 143.799 33.671 L 143.799 36.402 L 142.921 36.402 L 142.921 33.723 L 142.921 33.723 Q 142.921 33.149 142.699 32.888 L 142.699 32.888 L 142.699 32.888 Q 142.477 32.627 141.99 32.627 L 141.99 32.627 L 141.99 32.627 Q 141.433 32.627 141.099 32.975 L 141.099 32.975 L 141.099 32.975 Q 140.764 33.323 140.764 33.905 L 140.764 33.905 L 140.764 36.402 L 139.894 36.402 L 139.894 30 L 140.764 30 L 140.764 32.696 L 140.764 32.696 Q 140.981 32.314 141.364 32.114 L 141.364 32.114 L 141.364 32.114 Q 141.747 31.914 142.225 31.914 L 142.225 31.914 Z  M 58.975 35.323 L 61.202 30.209 L 61.923 30.209 L 61.923 36.402 L 61.115 36.402 L 61.115 32.148 L 59.279 36.402 L 58.662 36.402 L 56.8 32.175 L 56.809 36.402 L 56 36.402 L 56 30.209 L 56.722 30.209 L 58.975 35.323 Z  M 67.038 34.079 L 67.038 34.227 L 63.907 34.227 L 63.907 34.227 Q 63.95 35.767 65.307 35.767 L 65.307 35.767 L 65.307 35.767 Q 66.064 35.767 66.69 35.271 L 66.69 35.271 L 66.96 35.897 L 66.96 35.897 Q 66.664 36.158 66.207 36.311 L 66.207 36.311 L 66.207 36.311 Q 65.751 36.463 65.29 36.463 L 65.29 36.463 L 65.29 36.463 Q 64.237 36.463 63.637 35.858 L 63.637 35.858 L 63.637 35.858 Q 63.037 35.254 63.037 34.201 L 63.037 34.201 L 63.037 34.201 Q 63.037 33.531 63.302 33.01 L 63.302 33.01 L 63.302 33.01 Q 63.567 32.488 64.046 32.201 L 64.046 32.201 L 64.046 32.201 Q 64.524 31.914 65.133 31.914 L 65.133 31.914 L 65.133 31.914 Q 66.02 31.914 66.529 32.488 L 66.529 32.488 L 66.529 32.488 Q 67.038 33.062 67.038 34.079 L 67.038 34.079 Z  M 65.15 32.566 L 65.15 32.566 Q 64.655 32.566 64.342 32.862 L 64.342 32.862 L 64.342 32.862 Q 64.028 33.157 63.941 33.705 L 63.941 33.705 L 66.264 33.705 L 66.264 33.705 Q 66.212 33.149 65.925 32.857 L 65.925 32.857 L 65.925 32.857 Q 65.638 32.566 65.15 32.566 L 65.15 32.566 Z  M 70.395 32.696 L 69.186 32.696 L 69.186 34.897 L 69.186 34.897 Q 69.186 35.349 69.382 35.536 L 69.382 35.536 L 69.382 35.536 Q 69.578 35.723 69.926 35.723 L 69.926 35.723 L 69.926 35.723 Q 70.152 35.723 70.387 35.654 L 70.387 35.654 L 70.387 36.367 L 70.387 36.367 Q 70.1 36.463 69.734 36.463 L 69.734 36.463 L 69.734 36.463 Q 69.056 36.463 68.682 36.08 L 68.682 36.08 L 68.682 36.08 Q 68.308 35.697 68.308 34.967 L 68.308 34.967 L 68.308 32.696 L 67.455 32.696 L 67.455 32.018 L 68.308 32.018 L 68.308 30.922 L 69.186 30.618 L 69.186 32.018 L 70.395 32.018 L 70.395 32.696 Z  M 73.388 31.914 L 73.388 31.914 Q 73.588 31.914 73.805 31.974 L 73.805 31.974 L 73.788 32.775 L 73.788 32.775 Q 73.553 32.688 73.275 32.688 L 73.275 32.688 L 73.275 32.688 Q 72.674 32.688 72.374 33.049 L 72.374 33.049 L 72.374 33.049 Q 72.074 33.41 72.074 33.958 L 72.074 33.958 L 72.074 36.402 L 71.204 36.402 L 71.204 33.253 L 71.204 33.253 Q 71.204 32.566 71.135 32.018 L 71.135 32.018 L 71.952 32.018 L 72.031 32.81 L 72.031 32.81 Q 72.205 32.375 72.57 32.144 L 72.57 32.144 L 72.57 32.144 Q 72.935 31.914 73.388 31.914 L 73.388 31.914 Z  M 76.362 36.463 L 76.362 36.463 Q 75.719 36.463 75.232 36.184 L 75.232 36.184 L 75.232 36.184 Q 74.745 35.906 74.479 35.393 L 74.479 35.393 L 74.479 35.393 Q 74.214 34.88 74.214 34.193 L 74.214 34.193 L 74.214 34.193 Q 74.214 33.505 74.479 32.988 L 74.479 32.988 L 74.479 32.988 Q 74.745 32.47 75.232 32.192 L 75.232 32.192 L 75.232 32.192 Q 75.719 31.914 76.362 31.914 L 76.362 31.914 L 76.362 31.914 Q 76.997 31.914 77.484 32.192 L 77.484 32.192 L 77.484 32.192 Q 77.972 32.47 78.237 32.988 L 78.237 32.988 L 78.237 32.988 Q 78.502 33.505 78.502 34.193 L 78.502 34.193 L 78.502 34.193 Q 78.502 34.88 78.237 35.393 L 78.237 35.393 L 78.237 35.393 Q 77.972 35.906 77.484 36.184 L 77.484 36.184 L 77.484 36.184 Q 76.997 36.463 76.362 36.463 L 76.362 36.463 Z  M 76.354 35.767 L 76.354 35.767 Q 76.963 35.767 77.284 35.367 L 77.284 35.367 L 77.284 35.367 Q 77.606 34.967 77.606 34.193 L 77.606 34.193 L 77.606 34.193 Q 77.606 33.436 77.28 33.027 L 77.28 33.027 L 77.28 33.027 Q 76.954 32.618 76.362 32.618 L 76.362 32.618 L 76.362 32.618 Q 75.762 32.618 75.432 33.027 L 75.432 33.027 L 75.432 33.027 Q 75.101 33.436 75.101 34.193 L 75.101 34.193 L 75.101 34.193 Q 75.101 34.967 75.427 35.367 L 75.427 35.367 L 75.427 35.367 Q 75.754 35.767 76.354 35.767 L 76.354 35.767 Z  M 81.851 31.914 L 81.851 31.914 Q 82.416 31.914 82.86 32.201 L 82.86 32.201 L 82.86 32.201 Q 83.304 32.488 83.551 33.01 L 83.551 33.01 L 83.551 33.01 Q 83.799 33.531 83.799 34.21 L 83.799 34.21 L 83.799 34.21 Q 83.799 34.888 83.556 35.397 L 83.556 35.397 L 83.556 35.397 Q 83.312 35.906 82.869 36.184 L 82.869 36.184 L 82.869 36.184 Q 82.425 36.463 81.851 36.463 L 81.851 36.463 L 81.851 36.463 Q 81.346 36.463 80.968 36.25 L 80.968 36.25 L 80.968 36.25 Q 80.59 36.037 80.398 35.636 L 80.398 35.636 L 80.398 38.281 L 79.529 38.281 L 79.529 33.253 L 79.529 33.253 Q 79.529 32.566 79.459 32.018 L 79.459 32.018 L 80.277 32.018 L 80.364 32.827 L 80.364 32.827 Q 80.538 32.392 80.929 32.153 L 80.929 32.153 L 80.929 32.153 Q 81.32 31.914 81.851 31.914 L 81.851 31.914 Z  M 81.651 35.767 L 81.651 35.767 Q 82.242 35.767 82.573 35.358 L 82.573 35.358 L 82.573 35.358 Q 82.903 34.949 82.903 34.21 L 82.903 34.21 L 82.903 34.21 Q 82.903 33.462 82.573 33.04 L 82.573 33.04 L 82.573 33.04 Q 82.242 32.618 81.651 32.618 L 81.651 32.618 L 81.651 32.618 Q 81.042 32.618 80.72 33.027 L 80.72 33.027 L 80.72 33.027 Q 80.398 33.436 80.398 34.193 L 80.398 34.193 L 80.398 34.193 Q 80.398 34.949 80.725 35.358 L 80.725 35.358 L 80.725 35.358 Q 81.051 35.767 81.651 35.767 L 81.651 35.767 Z  M 86.713 36.463 L 86.713 36.463 Q 86.07 36.463 85.582 36.184 L 85.582 36.184 L 85.582 36.184 Q 85.095 35.906 84.83 35.393 L 84.83 35.393 L 84.83 35.393 Q 84.565 34.88 84.565 34.193 L 84.565 34.193 L 84.565 34.193 Q 84.565 33.505 84.83 32.988 L 84.83 32.988 L 84.83 32.988 Q 85.095 32.47 85.582 32.192 L 85.582 32.192 L 85.582 32.192 Q 86.07 31.914 86.713 31.914 L 86.713 31.914 L 86.713 31.914 Q 87.348 31.914 87.835 32.192 L 87.835 32.192 L 87.835 32.192 Q 88.322 32.47 88.588 32.988 L 88.588 32.988 L 88.588 32.988 Q 88.853 33.505 88.853 34.193 L 88.853 34.193 L 88.853 34.193 Q 88.853 34.88 88.588 35.393 L 88.588 35.393 L 88.588 35.393 Q 88.322 35.906 87.835 36.184 L 87.835 36.184 L 87.835 36.184 Q 87.348 36.463 86.713 36.463 L 86.713 36.463 Z  M 86.705 35.767 L 86.705 35.767 Q 87.313 35.767 87.635 35.367 L 87.635 35.367 L 87.635 35.367 Q 87.957 34.967 87.957 34.193 L 87.957 34.193 L 87.957 34.193 Q 87.957 33.436 87.631 33.027 L 87.631 33.027 L 87.631 33.027 Q 87.305 32.618 86.713 32.618 L 86.713 32.618 L 86.713 32.618 Q 86.113 32.618 85.783 33.027 L 85.783 33.027 L 85.783 33.027 Q 85.452 33.436 85.452 34.193 L 85.452 34.193 L 85.452 34.193 Q 85.452 34.967 85.778 35.367 L 85.778 35.367 L 85.778 35.367 Q 86.104 35.767 86.705 35.767 L 86.705 35.767 Z  M 90.749 36.402 L 89.879 36.402 L 89.879 30 L 90.749 30 L 90.749 36.402 Z  M 92.906 36.402 L 92.037 36.402 L 92.037 32.018 L 92.906 32.018 L 92.906 36.402 Z  M 91.958 31.026 L 91.958 30.104 L 92.976 30.104 L 92.976 31.026 L 91.958 31.026 Z  M 96.542 32.696 L 95.333 32.696 L 95.333 34.897 L 95.333 34.897 Q 95.333 35.349 95.529 35.536 L 95.529 35.536 L 95.529 35.536 Q 95.725 35.723 96.072 35.723 L 96.072 35.723 L 96.072 35.723 Q 96.299 35.723 96.533 35.654 L 96.533 35.654 L 96.533 36.367 L 96.533 36.367 Q 96.246 36.463 95.881 36.463 L 95.881 36.463 L 95.881 36.463 Q 95.203 36.463 94.829 36.08 L 94.829 36.08 L 94.829 36.08 Q 94.455 35.697 94.455 34.967 L 94.455 34.967 L 94.455 32.696 L 93.602 32.696 L 93.602 32.018 L 94.455 32.018 L 94.455 30.922 L 95.333 30.618 L 95.333 32.018 L 96.542 32.018 L 96.542 32.696 Z  M 100.491 32.018 L 101.361 32.018 L 101.361 36.402 L 100.491 36.402 L 100.491 35.654 L 100.491 35.654 Q 100.3 36.045 99.921 36.254 L 99.921 36.254 L 99.921 36.254 Q 99.543 36.463 99.039 36.463 L 99.039 36.463 L 99.039 36.463 Q 98.456 36.463 98.017 36.184 L 98.017 36.184 L 98.017 36.184 Q 97.577 35.906 97.334 35.397 L 97.334 35.397 L 97.334 35.397 Q 97.09 34.888 97.09 34.21 L 97.09 34.21 L 97.09 34.21 Q 97.09 33.531 97.338 33.01 L 97.338 33.01 L 97.338 33.01 Q 97.586 32.488 98.03 32.201 L 98.03 32.201 L 98.03 32.201 Q 98.473 31.914 99.039 31.914 L 99.039 31.914 L 99.039 31.914 Q 99.543 31.914 99.917 32.127 L 99.917 32.127 L 99.917 32.127 Q 100.291 32.34 100.491 32.731 L 100.491 32.731 L 100.491 32.018 Z  M 99.247 35.767 L 99.247 35.767 Q 99.839 35.767 100.165 35.354 L 100.165 35.354 L 100.165 35.354 Q 100.491 34.941 100.491 34.193 L 100.491 34.193 L 100.491 34.193 Q 100.491 33.436 100.165 33.027 L 100.165 33.027 L 100.165 33.027 Q 99.839 32.618 99.239 32.618 L 99.239 32.618 L 99.239 32.618 Q 98.647 32.618 98.312 33.04 L 98.312 33.04 L 98.312 33.04 Q 97.977 33.462 97.977 34.21 L 97.977 34.21 L 97.977 34.21 Q 97.977 34.949 98.312 35.358 L 98.312 35.358 L 98.312 35.358 Q 98.647 35.767 99.247 35.767 L 99.247 35.767 Z  M 104.979 31.914 L 104.979 31.914 Q 106.554 31.914 106.554 33.671 L 106.554 33.671 L 106.554 36.402 L 105.675 36.402 L 105.675 33.723 L 105.675 33.723 Q 105.675 33.149 105.453 32.888 L 105.453 32.888 L 105.453 32.888 Q 105.232 32.627 104.745 32.627 L 104.745 32.627 L 104.745 32.627 Q 104.188 32.627 103.853 32.975 L 103.853 32.975 L 103.853 32.975 Q 103.518 33.323 103.518 33.905 L 103.518 33.905 L 103.518 36.402 L 102.648 36.402 L 102.648 33.253 L 102.648 33.253 Q 102.648 32.566 102.579 32.018 L 102.579 32.018 L 103.396 32.018 L 103.475 32.775 L 103.475 32.775 Q 103.683 32.357 104.079 32.135 L 104.079 32.135 L 104.079 32.135 Q 104.475 31.914 104.979 31.914 L 104.979 31.914 Z " fill-rule="evenodd" fill="rgb(255,255,255)"/></svg>