<?xml version="1.0" standalone="no"?><!-- Generator: Gravit.io --><svg xmlns="http://www.w3.org/2000/svg" xmlns:xlink="http://www.w3.org/1999/xlink" style="isolation:isolate" viewBox="0 0 232 48" width="232" height="48"><path d=" M 11.25 3.654 C 4.494 7.902 0 15.424 0 23.986 C 0 32.549 4.494 40.071 11.25 44.319 L 11.25 27.747 L 11.25 20.247 L 11.25 6.747 L 11.25 3.654 Z " fill="rgb(255,255,255)" fill-opacity="0.4"/><path d=" M 31.884 1.315 C 41.263 4.579 48 13.502 48 23.986 C 48 30.033 45.759 35.56 42.064 39.782 L 31.622 25.83 C 32.616 25.259 33.545 24.569 34.387 23.772 C 37.238 21.109 38.887 17.397 39 13.497 C 38.887 9.597 37.238 5.884 34.387 3.222 C 33.619 2.495 32.779 1.857 31.884 1.315 Z " fill="rgb(255,255,255)"/><g opacity="0.8"><path d=" M 36.298 44.596 C 32.701 46.749 28.494 47.986 24 47.986 C 22.197 47.986 20.44 47.787 18.75 47.409 L 18.75 27.747 L 18.75 27.747 L 21.335 27.747 C 22.81 27.84 24.132 28.539 25.086 29.614 L 36.298 44.596 Z " fill="rgb(255,255,255)"/></g><g opacity="0.8"><path d=" M 24.677 20.247 L 24.113 20.247 L 24 20.247 L 18.75 20.247 L 18.75 6.747 L 22.261 6.747 L 24.677 6.747 C 26.353 6.814 27.961 7.475 29.175 8.622 C 30.562 9.859 31.387 11.622 31.5 13.497 C 31.387 15.372 30.562 17.134 29.175 18.372 C 27.961 19.519 26.353 20.18 24.677 20.247 L 24.677 20.247 Z " fill="rgb(255,255,255)"/></g><path d=" M 75.177 19.742 L 77.942 27.126 L 74.517 27.126 L 71.72 19.679 L 71.72 19.679 Q 71.28 18.485 70.432 18.03 L 70.432 18.03 L 70.432 18.03 Q 69.584 17.574 68.107 17.574 L 68.107 17.574 L 63.205 17.574 L 63.205 27.126 L 60 27.126 L 60 4.754 L 69.207 4.754 L 69.207 4.754 Q 72.883 4.754 74.847 6.388 L 74.847 6.388 L 74.847 6.388 Q 76.811 8.022 76.811 11.07 L 76.811 11.07 L 76.811 11.07 Q 76.811 13.269 75.648 14.809 L 75.648 14.809 L 75.648 14.809 Q 74.485 16.349 72.349 16.977 L 72.349 16.977 L 72.349 16.977 Q 74.297 17.323 75.177 19.742 L 75.177 19.742 Z  M 63.205 14.966 L 68.83 14.966 L 68.83 14.966 Q 71.28 14.966 72.474 14.008 L 72.474 14.008 L 72.474 14.008 Q 73.668 13.049 73.668 11.133 L 73.668 11.133 L 73.668 11.133 Q 73.668 9.216 72.49 8.289 L 72.49 8.289 L 72.49 8.289 Q 71.312 7.362 68.83 7.362 L 68.83 7.362 L 63.205 7.362 L 63.205 14.966 Z  M 88.437 27.346 L 88.437 27.346 Q 86.112 27.346 84.352 26.341 L 84.352 26.341 L 84.352 26.341 Q 82.592 25.335 81.634 23.482 L 81.634 23.482 L 81.634 23.482 Q 80.676 21.628 80.676 19.145 L 80.676 19.145 L 80.676 19.145 Q 80.676 16.663 81.634 14.793 L 81.634 14.793 L 81.634 14.793 Q 82.592 12.924 84.352 11.918 L 84.352 11.918 L 84.352 11.918 Q 86.112 10.913 88.437 10.913 L 88.437 10.913 L 88.437 10.913 Q 90.731 10.913 92.49 11.918 L 92.49 11.918 L 92.49 11.918 Q 94.25 12.924 95.208 14.793 L 95.208 14.793 L 95.208 14.793 Q 96.167 16.663 96.167 19.145 L 96.167 19.145 L 96.167 19.145 Q 96.167 21.628 95.208 23.482 L 95.208 23.482 L 95.208 23.482 Q 94.25 25.335 92.49 26.341 L 92.49 26.341 L 92.49 26.341 Q 90.731 27.346 88.437 27.346 L 88.437 27.346 Z  M 88.405 24.833 L 88.405 24.833 Q 90.605 24.833 91.767 23.387 L 91.767 23.387 L 91.767 23.387 Q 92.93 21.942 92.93 19.145 L 92.93 19.145 L 92.93 19.145 Q 92.93 16.412 91.752 14.935 L 91.752 14.935 L 91.752 14.935 Q 90.573 13.458 88.437 13.458 L 88.437 13.458 L 88.437 13.458 Q 86.269 13.458 85.075 14.935 L 85.075 14.935 L 85.075 14.935 Q 83.881 16.412 83.881 19.145 L 83.881 19.145 L 83.881 19.145 Q 83.881 21.942 85.059 23.387 L 85.059 23.387 L 85.059 23.387 Q 86.237 24.833 88.405 24.833 L 88.405 24.833 Z  M 108.358 13.741 L 103.991 13.741 L 103.991 21.69 L 103.991 21.69 Q 103.991 23.324 104.698 24 L 104.698 24 L 104.698 24 Q 105.405 24.676 106.661 24.676 L 106.661 24.676 L 106.661 24.676 Q 107.478 24.676 108.327 24.424 L 108.327 24.424 L 108.327 27.001 L 108.327 27.001 Q 107.29 27.346 105.97 27.346 L 105.97 27.346 L 105.97 27.346 Q 103.519 27.346 102.168 25.964 L 102.168 25.964 L 102.168 25.964 Q 100.817 24.581 100.817 21.942 L 100.817 21.942 L 100.817 13.741 L 97.738 13.741 L 97.738 11.29 L 100.817 11.29 L 100.817 7.331 L 103.991 6.231 L 103.991 11.29 L 108.358 11.29 L 108.358 13.741 Z  M 119.701 10.913 L 119.701 10.913 Q 125.389 10.913 125.389 17.26 L 125.389 17.26 L 125.389 27.126 L 122.215 27.126 L 122.215 17.449 L 122.215 17.449 Q 122.215 15.375 121.414 14.432 L 121.414 14.432 L 121.414 14.432 Q 120.613 13.489 118.853 13.489 L 118.853 13.489 L 118.853 13.489 Q 116.842 13.489 115.632 14.746 L 115.632 14.746 L 115.632 14.746 Q 114.423 16.003 114.423 18.108 L 114.423 18.108 L 114.423 27.126 L 111.28 27.126 L 111.28 4 L 114.423 4 L 114.423 13.741 L 114.423 13.741 Q 115.208 12.358 116.591 11.636 L 116.591 11.636 L 116.591 11.636 Q 117.973 10.913 119.701 10.913 L 119.701 10.913 Z  M 143.425 18.737 L 143.425 19.271 L 132.113 19.271 L 132.113 19.271 Q 132.27 24.833 137.172 24.833 L 137.172 24.833 L 137.172 24.833 Q 139.906 24.833 142.168 23.042 L 142.168 23.042 L 143.142 25.304 L 143.142 25.304 Q 142.074 26.247 140.424 26.797 L 140.424 26.797 L 140.424 26.797 Q 138.775 27.346 137.109 27.346 L 137.109 27.346 L 137.109 27.346 Q 133.307 27.346 131.139 25.163 L 131.139 25.163 L 131.139 25.163 Q 128.971 22.979 128.971 19.177 L 128.971 19.177 L 128.971 19.177 Q 128.971 16.757 129.929 14.872 L 129.929 14.872 L 129.929 14.872 Q 130.888 12.987 132.616 11.95 L 132.616 11.95 L 132.616 11.95 Q 134.344 10.913 136.544 10.913 L 136.544 10.913 L 136.544 10.913 Q 139.749 10.913 141.587 12.987 L 141.587 12.987 L 141.587 12.987 Q 143.425 15.06 143.425 18.737 L 143.425 18.737 Z  M 136.606 13.269 L 136.606 13.269 Q 134.815 13.269 133.684 14.338 L 133.684 14.338 L 133.684 14.338 Q 132.553 15.406 132.239 17.386 L 132.239 17.386 L 140.628 17.386 L 140.628 17.386 Q 140.44 15.375 139.403 14.322 L 139.403 14.322 L 139.403 14.322 Q 138.366 13.269 136.606 13.269 L 136.606 13.269 Z  M 154.957 10.913 L 154.957 10.913 Q 155.68 10.913 156.465 11.133 L 156.465 11.133 L 156.402 14.024 L 156.402 14.024 Q 155.554 13.709 154.548 13.709 L 154.548 13.709 L 154.548 13.709 Q 152.38 13.709 151.296 15.013 L 151.296 15.013 L 151.296 15.013 Q 150.212 16.317 150.212 18.297 L 150.212 18.297 L 150.212 27.126 L 147.07 27.126 L 147.07 15.752 L 147.07 15.752 Q 147.07 13.269 146.819 11.29 L 146.819 11.29 L 149.772 11.29 L 150.055 14.149 L 150.055 14.149 Q 150.683 12.578 152.003 11.745 L 152.003 11.745 L 152.003 11.745 Q 153.323 10.913 154.957 10.913 L 154.957 10.913 Z  M 167.306 10.913 L 167.306 10.913 Q 172.993 10.913 172.993 17.26 L 172.993 17.26 L 172.993 27.126 L 169.819 27.126 L 169.819 17.449 L 169.819 17.449 Q 169.819 15.375 169.018 14.432 L 169.018 14.432 L 169.018 14.432 Q 168.217 13.489 166.457 13.489 L 166.457 13.489 L 166.457 13.489 Q 164.446 13.489 163.236 14.746 L 163.236 14.746 L 163.236 14.746 Q 162.027 16.003 162.027 18.108 L 162.027 18.108 L 162.027 27.126 L 158.885 27.126 L 158.885 4 L 162.027 4 L 162.027 13.741 L 162.027 13.741 Q 162.812 12.358 164.195 11.636 L 164.195 11.636 L 164.195 11.636 Q 165.577 10.913 167.306 10.913 L 167.306 10.913 Z  M 188.861 11.29 L 192.003 11.29 L 192.003 27.126 L 188.861 27.126 L 188.861 24.424 L 188.861 24.424 Q 188.17 25.838 186.803 26.592 L 186.803 26.592 L 186.803 26.592 Q 185.436 27.346 183.614 27.346 L 183.614 27.346 L 183.614 27.346 Q 181.508 27.346 179.921 26.341 L 179.921 26.341 L 179.921 26.341 Q 178.335 25.335 177.455 23.497 L 177.455 23.497 L 177.455 23.497 Q 176.575 21.659 176.575 19.208 L 176.575 19.208 L 176.575 19.208 Q 176.575 16.757 177.471 14.872 L 177.471 14.872 L 177.471 14.872 Q 178.366 12.987 179.969 11.95 L 179.969 11.95 L 179.969 11.95 Q 181.571 10.913 183.614 10.913 L 183.614 10.913 L 183.614 10.913 Q 185.436 10.913 186.787 11.683 L 186.787 11.683 L 186.787 11.683 Q 188.138 12.452 188.861 13.866 L 188.861 13.866 L 188.861 11.29 Z  M 184.368 24.833 L 184.368 24.833 Q 186.504 24.833 187.683 23.34 L 187.683 23.34 L 187.683 23.34 Q 188.861 21.848 188.861 19.145 L 188.861 19.145 L 188.861 19.145 Q 188.861 16.412 187.683 14.935 L 187.683 14.935 L 187.683 14.935 Q 186.504 13.458 184.336 13.458 L 184.336 13.458 L 184.336 13.458 Q 182.2 13.458 180.99 14.982 L 180.99 14.982 L 180.99 14.982 Q 179.78 16.506 179.78 19.208 L 179.78 19.208 L 179.78 19.208 Q 179.78 21.879 180.99 23.356 L 180.99 23.356 L 180.99 23.356 Q 182.2 24.833 184.368 24.833 L 184.368 24.833 Z  M 214.721 10.913 L 214.721 10.913 Q 220 10.913 220 17.26 L 220 17.26 L 220 27.126 L 216.826 27.126 L 216.826 17.417 L 216.826 17.417 Q 216.826 15.375 216.119 14.432 L 216.119 14.432 L 216.119 14.432 Q 215.412 13.489 213.841 13.489 L 213.841 13.489 L 213.841 13.489 Q 212.019 13.489 210.966 14.746 L 210.966 14.746 L 210.966 14.746 Q 209.914 16.003 209.914 18.171 L 209.914 18.171 L 209.914 27.126 L 206.74 27.126 L 206.74 17.417 L 206.74 17.417 Q 206.74 15.375 206.033 14.432 L 206.033 14.432 L 206.033 14.432 Q 205.326 13.489 203.755 13.489 L 203.755 13.489 L 203.755 13.489 Q 201.932 13.489 200.864 14.746 L 200.864 14.746 L 200.864 14.746 Q 199.796 16.003 199.796 18.171 L 199.796 18.171 L 199.796 27.126 L 196.654 27.126 L 196.654 15.752 L 196.654 15.752 Q 196.654 13.269 196.402 11.29 L 196.402 11.29 L 199.356 11.29 L 199.639 13.929 L 199.639 13.929 Q 200.33 12.484 201.618 11.698 L 201.618 11.698 L 201.618 11.698 Q 202.907 10.913 204.635 10.913 L 204.635 10.913 L 204.635 10.913 Q 208.311 10.913 209.442 13.961 L 209.442 13.961 L 209.442 13.961 Q 210.165 12.547 211.563 11.73 L 211.563 11.73 L 211.563 11.73 Q 212.962 10.913 214.721 10.913 L 214.721 10.913 Z " fill-rule="evenodd" fill="rgb(255,255,255)"/><path d=" M 185.567 41.962 L 185.567 41.962 Q 184.372 41.962 183.485 41.446 L 183.485 41.446 L 183.485 41.446 Q 182.598 40.93 182.122 39.979 L 182.122 39.979 L 182.122 39.979 Q 181.647 39.028 181.647 37.729 L 181.647 37.729 L 181.647 37.729 Q 181.647 36.441 182.122 35.49 L 182.122 35.49 L 182.122 35.49 Q 182.598 34.539 183.485 34.029 L 183.485 34.029 L 183.485 34.029 Q 184.372 33.519 185.567 33.519 L 185.567 33.519 L 185.567 33.519 Q 186.413 33.519 187.138 33.78 L 187.138 33.78 L 187.138 33.78 Q 187.863 34.041 188.362 34.539 L 188.362 34.539 L 187.944 35.421 L 187.944 35.421 Q 187.364 34.945 186.802 34.731 L 186.802 34.731 L 186.802 34.731 Q 186.239 34.516 185.578 34.516 L 185.578 34.516 L 185.578 34.516 Q 184.291 34.516 183.589 35.351 L 183.589 35.351 L 183.589 35.351 Q 182.888 36.186 182.888 37.729 L 182.888 37.729 L 182.888 37.729 Q 182.888 39.283 183.589 40.124 L 183.589 40.124 L 183.589 40.124 Q 184.291 40.965 185.578 40.965 L 185.578 40.965 L 185.578 40.965 Q 186.239 40.965 186.802 40.75 L 186.802 40.75 L 186.802 40.75 Q 187.364 40.535 187.944 40.06 L 187.944 40.06 L 188.362 40.941 L 188.362 40.941 Q 187.863 41.44 187.138 41.701 L 187.138 41.701 L 187.138 41.701 Q 186.413 41.962 185.567 41.962 L 185.567 41.962 Z  M 192.282 41.95 L 192.282 41.95 Q 191.424 41.95 190.774 41.579 L 190.774 41.579 L 190.774 41.579 Q 190.125 41.208 189.771 40.524 L 189.771 40.524 L 189.771 40.524 Q 189.417 39.84 189.417 38.923 L 189.417 38.923 L 189.417 38.923 Q 189.417 38.007 189.771 37.317 L 189.771 37.317 L 189.771 37.317 Q 190.125 36.627 190.774 36.256 L 190.774 36.256 L 190.774 36.256 Q 191.424 35.885 192.282 35.885 L 192.282 35.885 L 192.282 35.885 Q 193.128 35.885 193.778 36.256 L 193.778 36.256 L 193.778 36.256 Q 194.427 36.627 194.781 37.317 L 194.781 37.317 L 194.781 37.317 Q 195.135 38.007 195.135 38.923 L 195.135 38.923 L 195.135 38.923 Q 195.135 39.84 194.781 40.524 L 194.781 40.524 L 194.781 40.524 Q 194.427 41.208 193.778 41.579 L 193.778 41.579 L 193.778 41.579 Q 193.128 41.95 192.282 41.95 L 192.282 41.95 Z  M 192.27 41.023 L 192.27 41.023 Q 193.082 41.023 193.511 40.489 L 193.511 40.489 L 193.511 40.489 Q 193.94 39.956 193.94 38.923 L 193.94 38.923 L 193.94 38.923 Q 193.94 37.914 193.505 37.369 L 193.505 37.369 L 193.505 37.369 Q 193.07 36.824 192.282 36.824 L 192.282 36.824 L 192.282 36.824 Q 191.482 36.824 191.041 37.369 L 191.041 37.369 L 191.041 37.369 Q 190.6 37.914 190.6 38.923 L 190.6 38.923 L 190.6 38.923 Q 190.6 39.956 191.035 40.489 L 191.035 40.489 L 191.035 40.489 Q 191.47 41.023 192.27 41.023 L 192.27 41.023 Z  M 200.412 36.024 L 201.583 36.024 L 201.583 41.869 L 200.447 41.869 L 200.447 40.895 L 200.447 40.895 Q 200.168 41.405 199.681 41.678 L 199.681 41.678 L 199.681 41.678 Q 199.194 41.95 198.579 41.95 L 198.579 41.95 L 198.579 41.95 Q 196.469 41.95 196.469 39.608 L 196.469 39.608 L 196.469 36.024 L 197.628 36.024 L 197.628 39.596 L 197.628 39.596 Q 197.628 40.315 197.924 40.657 L 197.924 40.657 L 197.924 40.657 Q 198.22 40.999 198.823 40.999 L 198.823 40.999 L 198.823 40.999 Q 199.542 40.999 199.977 40.535 L 199.977 40.535 L 199.977 40.535 Q 200.412 40.072 200.412 39.306 L 200.412 39.306 L 200.412 36.024 Z  M 206.408 35.885 L 206.408 35.885 Q 208.507 35.885 208.507 38.228 L 208.507 38.228 L 208.507 41.869 L 207.335 41.869 L 207.335 38.297 L 207.335 38.297 Q 207.335 37.532 207.04 37.184 L 207.04 37.184 L 207.04 37.184 Q 206.744 36.836 206.095 36.836 L 206.095 36.836 L 206.095 36.836 Q 205.352 36.836 204.906 37.3 L 204.906 37.3 L 204.906 37.3 Q 204.459 37.764 204.459 38.541 L 204.459 38.541 L 204.459 41.869 L 203.3 41.869 L 203.3 37.671 L 203.3 37.671 Q 203.3 36.755 203.207 36.024 L 203.207 36.024 L 204.297 36.024 L 204.401 37.033 L 204.401 37.033 Q 204.68 36.476 205.207 36.181 L 205.207 36.181 L 205.207 36.181 Q 205.735 35.885 206.408 35.885 L 206.408 35.885 Z  M 212.717 41.95 L 212.717 41.95 Q 211.835 41.95 211.18 41.579 L 211.18 41.579 L 211.18 41.579 Q 210.525 41.208 210.177 40.53 L 210.177 40.53 L 210.177 40.53 Q 209.829 39.851 209.829 38.947 L 209.829 38.947 L 209.829 38.947 Q 209.829 38.042 210.194 37.346 L 210.194 37.346 L 210.194 37.346 Q 210.56 36.65 211.221 36.268 L 211.221 36.268 L 211.221 36.268 Q 211.882 35.885 212.763 35.885 L 212.763 35.885 L 212.763 35.885 Q 213.378 35.885 213.946 36.088 L 213.946 36.088 L 213.946 36.088 Q 214.514 36.291 214.862 36.639 L 214.862 36.639 L 214.503 37.485 L 214.503 37.485 Q 213.679 36.836 212.844 36.836 L 212.844 36.836 L 212.844 36.836 Q 211.998 36.836 211.522 37.387 L 211.522 37.387 L 211.522 37.387 Q 211.047 37.938 211.047 38.935 L 211.047 38.935 L 211.047 38.935 Q 211.047 39.932 211.522 40.472 L 211.522 40.472 L 211.522 40.472 Q 211.998 41.011 212.844 41.011 L 212.844 41.011 L 212.844 41.011 Q 213.703 41.011 214.503 40.361 L 214.503 40.361 L 214.862 41.208 L 214.862 41.208 Q 214.491 41.556 213.917 41.753 L 213.917 41.753 L 213.917 41.753 Q 213.343 41.95 212.717 41.95 L 212.717 41.95 Z  M 217.124 41.869 L 215.964 41.869 L 215.964 36.024 L 217.124 36.024 L 217.124 41.869 Z  M 215.86 34.702 L 215.86 33.473 L 217.217 33.473 L 217.217 34.702 L 215.86 34.702 Z  M 220 41.869 L 218.84 41.869 L 218.84 33.333 L 220 33.333 L 220 41.869 Z  M 137.135 37.613 L 137.135 37.613 Q 137.854 37.81 138.249 38.332 L 138.249 38.332 L 138.249 38.332 Q 138.643 38.854 138.643 39.619 L 138.643 39.619 L 138.643 39.619 Q 138.643 40.686 137.907 41.278 L 137.907 41.278 L 137.907 41.278 Q 137.17 41.869 135.848 41.869 L 135.848 41.869 L 132.276 41.869 L 132.276 33.612 L 135.732 33.612 L 135.732 33.612 Q 137.008 33.612 137.721 34.18 L 137.721 34.18 L 137.721 34.18 Q 138.434 34.748 138.434 35.769 L 138.434 35.769 L 138.434 35.769 Q 138.434 36.43 138.092 36.911 L 138.092 36.911 L 138.092 36.911 Q 137.75 37.392 137.135 37.613 L 137.135 37.613 Z  M 133.459 34.574 L 133.459 37.195 L 135.547 37.195 L 135.547 37.195 Q 137.275 37.195 137.275 35.862 L 137.275 35.862 L 137.275 35.862 Q 137.275 34.574 135.547 34.574 L 135.547 34.574 L 133.459 34.574 Z  M 135.732 40.907 L 135.732 40.907 Q 136.637 40.907 137.054 40.576 L 137.054 40.576 L 137.054 40.576 Q 137.472 40.245 137.472 39.55 L 137.472 39.55 L 137.472 39.55 Q 137.472 38.842 137.048 38.5 L 137.048 38.5 L 137.048 38.5 Q 136.625 38.158 135.732 38.158 L 135.732 38.158 L 133.459 38.158 L 133.459 40.907 L 135.732 40.907 Z  M 142.633 41.95 L 142.633 41.95 Q 141.774 41.95 141.125 41.579 L 141.125 41.579 L 141.125 41.579 Q 140.476 41.208 140.122 40.524 L 140.122 40.524 L 140.122 40.524 Q 139.768 39.84 139.768 38.923 L 139.768 38.923 L 139.768 38.923 Q 139.768 38.007 140.122 37.317 L 140.122 37.317 L 140.122 37.317 Q 140.476 36.627 141.125 36.256 L 141.125 36.256 L 141.125 36.256 Q 141.774 35.885 142.633 35.885 L 142.633 35.885 L 142.633 35.885 Q 143.479 35.885 144.129 36.256 L 144.129 36.256 L 144.129 36.256 Q 144.778 36.627 145.132 37.317 L 145.132 37.317 L 145.132 37.317 Q 145.486 38.007 145.486 38.923 L 145.486 38.923 L 145.486 38.923 Q 145.486 39.84 145.132 40.524 L 145.132 40.524 L 145.132 40.524 Q 144.778 41.208 144.129 41.579 L 144.129 41.579 L 144.129 41.579 Q 143.479 41.95 142.633 41.95 L 142.633 41.95 Z  M 142.621 41.023 L 142.621 41.023 Q 143.433 41.023 143.862 40.489 L 143.862 40.489 L 143.862 40.489 Q 144.291 39.956 144.291 38.923 L 144.291 38.923 L 144.291 38.923 Q 144.291 37.914 143.856 37.369 L 143.856 37.369 L 143.856 37.369 Q 143.421 36.824 142.633 36.824 L 142.633 36.824 L 142.633 36.824 Q 141.832 36.824 141.392 37.369 L 141.392 37.369 L 141.392 37.369 Q 140.951 37.914 140.951 38.923 L 140.951 38.923 L 140.951 38.923 Q 140.951 39.956 141.386 40.489 L 141.386 40.489 L 141.386 40.489 Q 141.821 41.023 142.621 41.023 L 142.621 41.023 Z  M 149.765 35.885 L 149.765 35.885 Q 150.032 35.885 150.322 35.966 L 150.322 35.966 L 150.299 37.033 L 150.299 37.033 Q 149.986 36.917 149.614 36.917 L 149.614 36.917 L 149.614 36.917 Q 148.814 36.917 148.414 37.398 L 148.414 37.398 L 148.414 37.398 Q 148.014 37.88 148.014 38.61 L 148.014 38.61 L 148.014 41.869 L 146.854 41.869 L 146.854 37.671 L 146.854 37.671 Q 146.854 36.755 146.761 36.024 L 146.761 36.024 L 147.852 36.024 L 147.956 37.079 L 147.956 37.079 Q 148.188 36.499 148.675 36.192 L 148.675 36.192 L 148.675 36.192 Q 149.162 35.885 149.765 35.885 L 149.765 35.885 Z  M 153.732 41.95 L 153.732 41.95 Q 152.873 41.95 152.224 41.579 L 152.224 41.579 L 152.224 41.579 Q 151.574 41.208 151.221 40.524 L 151.221 40.524 L 151.221 40.524 Q 150.867 39.84 150.867 38.923 L 150.867 38.923 L 150.867 38.923 Q 150.867 38.007 151.221 37.317 L 151.221 37.317 L 151.221 37.317 Q 151.574 36.627 152.224 36.256 L 152.224 36.256 L 152.224 36.256 Q 152.873 35.885 153.732 35.885 L 153.732 35.885 L 153.732 35.885 Q 154.578 35.885 155.228 36.256 L 155.228 36.256 L 155.228 36.256 Q 155.877 36.627 156.231 37.317 L 156.231 37.317 L 156.231 37.317 Q 156.585 38.007 156.585 38.923 L 156.585 38.923 L 156.585 38.923 Q 156.585 39.84 156.231 40.524 L 156.231 40.524 L 156.231 40.524 Q 155.877 41.208 155.228 41.579 L 155.228 41.579 L 155.228 41.579 Q 154.578 41.95 153.732 41.95 L 153.732 41.95 Z  M 153.72 41.023 L 153.72 41.023 Q 154.532 41.023 154.961 40.489 L 154.961 40.489 L 154.961 40.489 Q 155.39 39.956 155.39 38.923 L 155.39 38.923 L 155.39 38.923 Q 155.39 37.914 154.955 37.369 L 154.955 37.369 L 154.955 37.369 Q 154.52 36.824 153.732 36.824 L 153.732 36.824 L 153.732 36.824 Q 152.931 36.824 152.491 37.369 L 152.491 37.369 L 152.491 37.369 Q 152.05 37.914 152.05 38.923 L 152.05 38.923 L 152.05 38.923 Q 152.05 39.956 152.485 40.489 L 152.485 40.489 L 152.485 40.489 Q 152.92 41.023 153.72 41.023 L 153.72 41.023 Z  M 161.861 36.024 L 163.033 36.024 L 163.033 41.869 L 161.896 41.869 L 161.896 40.895 L 161.896 40.895 Q 161.618 41.405 161.131 41.678 L 161.131 41.678 L 161.131 41.678 Q 160.644 41.95 160.029 41.95 L 160.029 41.95 L 160.029 41.95 Q 157.918 41.95 157.918 39.608 L 157.918 39.608 L 157.918 36.024 L 159.078 36.024 L 159.078 39.596 L 159.078 39.596 Q 159.078 40.315 159.374 40.657 L 159.374 40.657 L 159.374 40.657 Q 159.669 40.999 160.273 40.999 L 160.273 40.999 L 160.273 40.999 Q 160.992 40.999 161.427 40.535 L 161.427 40.535 L 161.427 40.535 Q 161.861 40.072 161.861 39.306 L 161.861 39.306 L 161.861 36.024 Z  M 168.982 36.024 L 170.142 36.024 L 170.142 41.765 L 170.142 41.765 Q 170.142 43.098 169.44 43.777 L 169.44 43.777 L 169.44 43.777 Q 168.739 44.455 167.359 44.455 L 167.359 44.455 L 167.359 44.455 Q 166.025 44.455 165.028 43.876 L 165.028 43.876 L 165.225 42.959 L 165.225 42.959 Q 165.77 43.249 166.274 43.388 L 166.274 43.388 L 166.274 43.388 Q 166.779 43.528 167.347 43.528 L 167.347 43.528 L 167.347 43.528 Q 168.982 43.528 168.982 41.858 L 168.982 41.858 L 168.982 40.593 L 168.982 40.593 Q 168.716 41.104 168.205 41.399 L 168.205 41.399 L 168.205 41.399 Q 167.695 41.695 167.022 41.695 L 167.022 41.695 L 167.022 41.695 Q 166.257 41.695 165.66 41.336 L 165.66 41.336 L 165.66 41.336 Q 165.062 40.976 164.732 40.315 L 164.732 40.315 L 164.732 40.315 Q 164.401 39.654 164.401 38.796 L 164.401 38.796 L 164.401 38.796 Q 164.401 37.938 164.732 37.277 L 164.732 37.277 L 164.732 37.277 Q 165.062 36.615 165.66 36.25 L 165.66 36.25 L 165.66 36.25 Q 166.257 35.885 167.022 35.885 L 167.022 35.885 L 167.022 35.885 Q 167.695 35.885 168.205 36.169 L 168.205 36.169 L 168.205 36.169 Q 168.716 36.453 168.982 36.975 L 168.982 36.975 L 168.982 36.024 Z  M 167.289 40.756 L 167.289 40.756 Q 168.078 40.756 168.53 40.234 L 168.53 40.234 L 168.53 40.234 Q 168.982 39.712 168.982 38.796 L 168.982 38.796 L 168.982 38.796 Q 168.982 37.88 168.536 37.352 L 168.536 37.352 L 168.536 37.352 Q 168.089 36.824 167.289 36.824 L 167.289 36.824 L 167.289 36.824 Q 166.5 36.824 166.042 37.352 L 166.042 37.352 L 166.042 37.352 Q 165.584 37.88 165.584 38.796 L 165.584 38.796 L 165.584 38.796 Q 165.584 39.7 166.042 40.228 L 166.042 40.228 L 166.042 40.228 Q 166.5 40.756 167.289 40.756 L 167.289 40.756 Z  M 174.967 35.885 L 174.967 35.885 Q 177.066 35.885 177.066 38.228 L 177.066 38.228 L 177.066 41.869 L 175.894 41.869 L 175.894 38.297 L 175.894 38.297 Q 175.894 37.532 175.599 37.184 L 175.599 37.184 L 175.599 37.184 Q 175.303 36.836 174.654 36.836 L 174.654 36.836 L 174.654 36.836 Q 173.911 36.836 173.465 37.3 L 173.465 37.3 L 173.465 37.3 Q 173.018 37.764 173.018 38.541 L 173.018 38.541 L 173.018 41.869 L 171.859 41.869 L 171.859 33.333 L 173.018 33.333 L 173.018 36.929 L 173.018 36.929 Q 173.308 36.418 173.819 36.152 L 173.819 36.152 L 173.819 36.152 Q 174.329 35.885 174.967 35.885 L 174.967 35.885 Z  M 63.966 40.431 L 66.935 33.612 L 67.898 33.612 L 67.898 41.869 L 66.819 41.869 L 66.819 36.198 L 64.372 41.869 L 63.549 41.869 L 61.067 36.233 L 61.079 41.869 L 60 41.869 L 60 33.612 L 60.963 33.612 L 63.966 40.431 Z  M 74.717 38.773 L 74.717 38.97 L 70.542 38.97 L 70.542 38.97 Q 70.6 41.023 72.409 41.023 L 72.409 41.023 L 72.409 41.023 Q 73.418 41.023 74.253 40.361 L 74.253 40.361 L 74.613 41.196 L 74.613 41.196 Q 74.219 41.544 73.61 41.747 L 73.61 41.747 L 73.61 41.747 Q 73.001 41.95 72.386 41.95 L 72.386 41.95 L 72.386 41.95 Q 70.983 41.95 70.183 41.144 L 70.183 41.144 L 70.183 41.144 Q 69.382 40.338 69.382 38.935 L 69.382 38.935 L 69.382 38.935 Q 69.382 38.042 69.736 37.346 L 69.736 37.346 L 69.736 37.346 Q 70.09 36.65 70.728 36.268 L 70.728 36.268 L 70.728 36.268 Q 71.366 35.885 72.177 35.885 L 72.177 35.885 L 72.177 35.885 Q 73.36 35.885 74.039 36.65 L 74.039 36.65 L 74.039 36.65 Q 74.717 37.416 74.717 38.773 L 74.717 38.773 Z  M 72.201 36.755 L 72.201 36.755 Q 71.54 36.755 71.122 37.149 L 71.122 37.149 L 71.122 37.149 Q 70.705 37.543 70.589 38.274 L 70.589 38.274 L 73.685 38.274 L 73.685 38.274 Q 73.616 37.532 73.233 37.143 L 73.233 37.143 L 73.233 37.143 Q 72.85 36.755 72.201 36.755 L 72.201 36.755 Z  M 79.194 36.929 L 77.582 36.929 L 77.582 39.863 L 77.582 39.863 Q 77.582 40.466 77.843 40.715 L 77.843 40.715 L 77.843 40.715 Q 78.104 40.965 78.568 40.965 L 78.568 40.965 L 78.568 40.965 Q 78.869 40.965 79.182 40.872 L 79.182 40.872 L 79.182 41.823 L 79.182 41.823 Q 78.8 41.95 78.313 41.95 L 78.313 41.95 L 78.313 41.95 Q 77.408 41.95 76.909 41.44 L 76.909 41.44 L 76.909 41.44 Q 76.411 40.93 76.411 39.956 L 76.411 39.956 L 76.411 36.929 L 75.274 36.929 L 75.274 36.024 L 76.411 36.024 L 76.411 34.563 L 77.582 34.157 L 77.582 36.024 L 79.194 36.024 L 79.194 36.929 Z  M 83.184 35.885 L 83.184 35.885 Q 83.45 35.885 83.74 35.966 L 83.74 35.966 L 83.717 37.033 L 83.717 37.033 Q 83.404 36.917 83.033 36.917 L 83.033 36.917 L 83.033 36.917 Q 82.233 36.917 81.832 37.398 L 81.832 37.398 L 81.832 37.398 Q 81.432 37.88 81.432 38.61 L 81.432 38.61 L 81.432 41.869 L 80.273 41.869 L 80.273 37.671 L 80.273 37.671 Q 80.273 36.755 80.18 36.024 L 80.18 36.024 L 81.27 36.024 L 81.374 37.079 L 81.374 37.079 Q 81.606 36.499 82.093 36.192 L 82.093 36.192 L 82.093 36.192 Q 82.58 35.885 83.184 35.885 L 83.184 35.885 Z  M 87.15 41.95 L 87.15 41.95 Q 86.292 41.95 85.642 41.579 L 85.642 41.579 L 85.642 41.579 Q 84.993 41.208 84.639 40.524 L 84.639 40.524 L 84.639 40.524 Q 84.285 39.84 84.285 38.923 L 84.285 38.923 L 84.285 38.923 Q 84.285 38.007 84.639 37.317 L 84.639 37.317 L 84.639 37.317 Q 84.993 36.627 85.642 36.256 L 85.642 36.256 L 85.642 36.256 Q 86.292 35.885 87.15 35.885 L 87.15 35.885 L 87.15 35.885 Q 87.997 35.885 88.646 36.256 L 88.646 36.256 L 88.646 36.256 Q 89.295 36.627 89.649 37.317 L 89.649 37.317 L 89.649 37.317 Q 90.003 38.007 90.003 38.923 L 90.003 38.923 L 90.003 38.923 Q 90.003 39.84 89.649 40.524 L 89.649 40.524 L 89.649 40.524 Q 89.295 41.208 88.646 41.579 L 88.646 41.579 L 88.646 41.579 Q 87.997 41.95 87.15 41.95 L 87.15 41.95 Z  M 87.138 41.023 L 87.138 41.023 Q 87.95 41.023 88.379 40.489 L 88.379 40.489 L 88.379 40.489 Q 88.808 39.956 88.808 38.923 L 88.808 38.923 L 88.808 38.923 Q 88.808 37.914 88.373 37.369 L 88.373 37.369 L 88.373 37.369 Q 87.939 36.824 87.15 36.824 L 87.15 36.824 L 87.15 36.824 Q 86.35 36.824 85.909 37.369 L 85.909 37.369 L 85.909 37.369 Q 85.468 37.914 85.468 38.923 L 85.468 38.923 L 85.468 38.923 Q 85.468 39.956 85.903 40.489 L 85.903 40.489 L 85.903 40.489 Q 86.338 41.023 87.138 41.023 L 87.138 41.023 Z  M 94.468 35.885 L 94.468 35.885 Q 95.222 35.885 95.813 36.268 L 95.813 36.268 L 95.813 36.268 Q 96.405 36.65 96.735 37.346 L 96.735 37.346 L 96.735 37.346 Q 97.066 38.042 97.066 38.947 L 97.066 38.947 L 97.066 38.947 Q 97.066 39.851 96.741 40.53 L 96.741 40.53 L 96.741 40.53 Q 96.416 41.208 95.825 41.579 L 95.825 41.579 L 95.825 41.579 Q 95.233 41.95 94.468 41.95 L 94.468 41.95 L 94.468 41.95 Q 93.795 41.95 93.291 41.666 L 93.291 41.666 L 93.291 41.666 Q 92.786 41.382 92.531 40.849 L 92.531 40.849 L 92.531 44.374 L 91.371 44.374 L 91.371 37.671 L 91.371 37.671 Q 91.371 36.755 91.279 36.024 L 91.279 36.024 L 92.369 36.024 L 92.485 37.103 L 92.485 37.103 Q 92.717 36.523 93.239 36.204 L 93.239 36.204 L 93.239 36.204 Q 93.761 35.885 94.468 35.885 L 94.468 35.885 Z  M 94.201 41.023 L 94.201 41.023 Q 94.99 41.023 95.431 40.477 L 95.431 40.477 L 95.431 40.477 Q 95.871 39.932 95.871 38.947 L 95.871 38.947 L 95.871 38.947 Q 95.871 37.949 95.431 37.387 L 95.431 37.387 L 95.431 37.387 Q 94.99 36.824 94.201 36.824 L 94.201 36.824 L 94.201 36.824 Q 93.389 36.824 92.96 37.369 L 92.96 37.369 L 92.96 37.369 Q 92.531 37.914 92.531 38.923 L 92.531 38.923 L 92.531 38.923 Q 92.531 39.932 92.966 40.477 L 92.966 40.477 L 92.966 40.477 Q 93.401 41.023 94.201 41.023 L 94.201 41.023 Z  M 100.951 41.95 L 100.951 41.95 Q 100.093 41.95 99.443 41.579 L 99.443 41.579 L 99.443 41.579 Q 98.794 41.208 98.44 40.524 L 98.44 40.524 L 98.44 40.524 Q 98.086 39.84 98.086 38.923 L 98.086 38.923 L 98.086 38.923 Q 98.086 38.007 98.44 37.317 L 98.44 37.317 L 98.44 37.317 Q 98.794 36.627 99.443 36.256 L 99.443 36.256 L 99.443 36.256 Q 100.093 35.885 100.951 35.885 L 100.951 35.885 L 100.951 35.885 Q 101.798 35.885 102.447 36.256 L 102.447 36.256 L 102.447 36.256 Q 103.097 36.627 103.45 37.317 L 103.45 37.317 L 103.45 37.317 Q 103.804 38.007 103.804 38.923 L 103.804 38.923 L 103.804 38.923 Q 103.804 39.84 103.45 40.524 L 103.45 40.524 L 103.45 40.524 Q 103.097 41.208 102.447 41.579 L 102.447 41.579 L 102.447 41.579 Q 101.798 41.95 100.951 41.95 L 100.951 41.95 Z  M 100.939 41.023 L 100.939 41.023 Q 101.751 41.023 102.18 40.489 L 102.18 40.489 L 102.18 40.489 Q 102.609 39.956 102.609 38.923 L 102.609 38.923 L 102.609 38.923 Q 102.609 37.914 102.175 37.369 L 102.175 37.369 L 102.175 37.369 Q 101.74 36.824 100.951 36.824 L 100.951 36.824 L 100.951 36.824 Q 100.151 36.824 99.71 37.369 L 99.71 37.369 L 99.71 37.369 Q 99.269 37.914 99.269 38.923 L 99.269 38.923 L 99.269 38.923 Q 99.269 39.956 99.704 40.489 L 99.704 40.489 L 99.704 40.489 Q 100.139 41.023 100.939 41.023 L 100.939 41.023 Z  M 106.332 41.869 L 105.173 41.869 L 105.173 33.333 L 106.332 33.333 L 106.332 41.869 Z  M 109.208 41.869 L 108.049 41.869 L 108.049 36.024 L 109.208 36.024 L 109.208 41.869 Z  M 107.944 34.702 L 107.944 33.473 L 109.301 33.473 L 109.301 34.702 L 107.944 34.702 Z  M 114.056 36.929 L 112.444 36.929 L 112.444 39.863 L 112.444 39.863 Q 112.444 40.466 112.705 40.715 L 112.705 40.715 L 112.705 40.715 Q 112.966 40.965 113.43 40.965 L 113.43 40.965 L 113.43 40.965 Q 113.732 40.965 114.045 40.872 L 114.045 40.872 L 114.045 41.823 L 114.045 41.823 Q 113.662 41.95 113.175 41.95 L 113.175 41.95 L 113.175 41.95 Q 112.27 41.95 111.772 41.44 L 111.772 41.44 L 111.772 41.44 Q 111.273 40.93 111.273 39.956 L 111.273 39.956 L 111.273 36.929 L 110.136 36.929 L 110.136 36.024 L 111.273 36.024 L 111.273 34.563 L 112.444 34.157 L 112.444 36.024 L 114.056 36.024 L 114.056 36.929 Z  M 119.322 36.024 L 120.481 36.024 L 120.481 41.869 L 119.322 41.869 L 119.322 40.872 L 119.322 40.872 Q 119.066 41.394 118.562 41.672 L 118.562 41.672 L 118.562 41.672 Q 118.057 41.95 117.385 41.95 L 117.385 41.95 L 117.385 41.95 Q 116.608 41.95 116.022 41.579 L 116.022 41.579 L 116.022 41.579 Q 115.436 41.208 115.112 40.53 L 115.112 40.53 L 115.112 40.53 Q 114.787 39.851 114.787 38.947 L 114.787 38.947 L 114.787 38.947 Q 114.787 38.042 115.117 37.346 L 115.117 37.346 L 115.117 37.346 Q 115.448 36.65 116.039 36.268 L 116.039 36.268 L 116.039 36.268 Q 116.631 35.885 117.385 35.885 L 117.385 35.885 L 117.385 35.885 Q 118.057 35.885 118.556 36.169 L 118.556 36.169 L 118.556 36.169 Q 119.055 36.453 119.322 36.975 L 119.322 36.975 L 119.322 36.024 Z  M 117.663 41.023 L 117.663 41.023 Q 118.452 41.023 118.887 40.472 L 118.887 40.472 L 118.887 40.472 Q 119.322 39.921 119.322 38.923 L 119.322 38.923 L 119.322 38.923 Q 119.322 37.914 118.887 37.369 L 118.887 37.369 L 118.887 37.369 Q 118.452 36.824 117.651 36.824 L 117.651 36.824 L 117.651 36.824 Q 116.863 36.824 116.416 37.387 L 116.416 37.387 L 116.416 37.387 Q 115.97 37.949 115.97 38.947 L 115.97 38.947 L 115.97 38.947 Q 115.97 39.932 116.416 40.477 L 116.416 40.477 L 116.416 40.477 Q 116.863 41.023 117.663 41.023 L 117.663 41.023 Z  M 125.306 35.885 L 125.306 35.885 Q 127.405 35.885 127.405 38.228 L 127.405 38.228 L 127.405 41.869 L 126.234 41.869 L 126.234 38.297 L 126.234 38.297 Q 126.234 37.532 125.938 37.184 L 125.938 37.184 L 125.938 37.184 Q 125.642 36.836 124.993 36.836 L 124.993 36.836 L 124.993 36.836 Q 124.251 36.836 123.804 37.3 L 123.804 37.3 L 123.804 37.3 Q 123.357 37.764 123.357 38.541 L 123.357 38.541 L 123.357 41.869 L 122.198 41.869 L 122.198 37.671 L 122.198 37.671 Q 122.198 36.755 122.105 36.024 L 122.105 36.024 L 123.195 36.024 L 123.3 37.033 L 123.3 37.033 Q 123.578 36.476 124.106 36.181 L 124.106 36.181 L 124.106 36.181 Q 124.633 35.885 125.306 35.885 L 125.306 35.885 Z " fill-rule="evenodd" fill="rgb(255,255,255)"/></svg>