<?xml version="1.0" standalone="no"?><!-- Generator: Gravit.io --><svg xmlns="http://www.w3.org/2000/svg" xmlns:xlink="http://www.w3.org/1999/xlink" style="isolation:isolate" viewBox="0 0 224 48" width="224" height="48"><path d=" M 11.25 3.654 C 4.494 7.902 0 15.424 0 23.986 C 0 32.549 4.494 40.071 11.25 44.319 L 11.25 27.747 L 11.25 20.247 L 11.25 6.747 L 11.25 3.654 Z " fill="rgb(255,255,255)" fill-opacity="0.4"/><path d=" M 31.884 1.315 C 41.263 4.579 48 13.502 48 23.986 C 48 30.033 45.759 35.56 42.064 39.782 L 31.622 25.83 C 32.616 25.259 33.545 24.569 34.387 23.772 C 37.238 21.109 38.887 17.397 39 13.497 C 38.887 9.597 37.238 5.884 34.387 3.222 C 33.619 2.495 32.779 1.857 31.884 1.315 Z " fill="rgb(255,255,255)"/><g opacity="0.8"><path d=" M 36.298 44.596 C 32.701 46.749 28.494 47.986 24 47.986 C 22.197 47.986 20.44 47.787 18.75 47.409 L 18.75 27.747 L 18.75 27.747 L 21.335 27.747 C 22.81 27.84 24.132 28.539 25.086 29.614 L 36.298 44.596 Z " fill="rgb(255,255,255)"/></g><g opacity="0.8"><path d=" M 24.677 20.247 L 24.113 20.247 L 24 20.247 L 18.75 20.247 L 18.75 6.747 L 22.261 6.747 L 24.677 6.747 C 26.353 6.814 27.961 7.475 29.175 8.622 C 30.562 9.859 31.387 11.622 31.5 13.497 C 31.387 15.372 30.562 17.134 29.175 18.372 C 27.961 19.519 26.353 20.18 24.677 20.247 L 24.677 20.247 Z " fill="rgb(255,255,255)"/></g><path d=" M 71.177 19.742 L 73.942 27.126 L 70.517 27.126 L 67.72 19.679 L 67.72 19.679 Q 67.28 18.485 66.432 18.03 L 66.432 18.03 L 66.432 18.03 Q 65.584 17.574 64.107 17.574 L 64.107 17.574 L 59.205 17.574 L 59.205 27.126 L 56 27.126 L 56 4.754 L 65.207 4.754 L 65.207 4.754 Q 68.883 4.754 70.847 6.388 L 70.847 6.388 L 70.847 6.388 Q 72.811 8.022 72.811 11.07 L 72.811 11.07 L 72.811 11.07 Q 72.811 13.269 71.648 14.809 L 71.648 14.809 L 71.648 14.809 Q 70.485 16.349 68.349 16.977 L 68.349 16.977 L 68.349 16.977 Q 70.297 17.323 71.177 19.742 L 71.177 19.742 Z  M 59.205 14.966 L 64.83 14.966 L 64.83 14.966 Q 67.28 14.966 68.474 14.008 L 68.474 14.008 L 68.474 14.008 Q 69.668 13.049 69.668 11.133 L 69.668 11.133 L 69.668 11.133 Q 69.668 9.216 68.49 8.289 L 68.49 8.289 L 68.49 8.289 Q 67.312 7.362 64.83 7.362 L 64.83 7.362 L 59.205 7.362 L 59.205 14.966 Z  M 84.437 27.346 L 84.437 27.346 Q 82.112 27.346 80.352 26.341 L 80.352 26.341 L 80.352 26.341 Q 78.592 25.335 77.634 23.482 L 77.634 23.482 L 77.634 23.482 Q 76.676 21.628 76.676 19.145 L 76.676 19.145 L 76.676 19.145 Q 76.676 16.663 77.634 14.793 L 77.634 14.793 L 77.634 14.793 Q 78.592 12.924 80.352 11.918 L 80.352 11.918 L 80.352 11.918 Q 82.112 10.913 84.437 10.913 L 84.437 10.913 L 84.437 10.913 Q 86.731 10.913 88.49 11.918 L 88.49 11.918 L 88.49 11.918 Q 90.25 12.924 91.208 14.793 L 91.208 14.793 L 91.208 14.793 Q 92.167 16.663 92.167 19.145 L 92.167 19.145 L 92.167 19.145 Q 92.167 21.628 91.208 23.482 L 91.208 23.482 L 91.208 23.482 Q 90.25 25.335 88.49 26.341 L 88.49 26.341 L 88.49 26.341 Q 86.731 27.346 84.437 27.346 L 84.437 27.346 Z  M 84.405 24.833 L 84.405 24.833 Q 86.605 24.833 87.767 23.387 L 87.767 23.387 L 87.767 23.387 Q 88.93 21.942 88.93 19.145 L 88.93 19.145 L 88.93 19.145 Q 88.93 16.412 87.752 14.935 L 87.752 14.935 L 87.752 14.935 Q 86.573 13.458 84.437 13.458 L 84.437 13.458 L 84.437 13.458 Q 82.269 13.458 81.075 14.935 L 81.075 14.935 L 81.075 14.935 Q 79.881 16.412 79.881 19.145 L 79.881 19.145 L 79.881 19.145 Q 79.881 21.942 81.059 23.387 L 81.059 23.387 L 81.059 23.387 Q 82.237 24.833 84.405 24.833 L 84.405 24.833 Z  M 104.358 13.741 L 99.991 13.741 L 99.991 21.69 L 99.991 21.69 Q 99.991 23.324 100.698 24 L 100.698 24 L 100.698 24 Q 101.405 24.676 102.661 24.676 L 102.661 24.676 L 102.661 24.676 Q 103.478 24.676 104.327 24.424 L 104.327 24.424 L 104.327 27.001 L 104.327 27.001 Q 103.29 27.346 101.97 27.346 L 101.97 27.346 L 101.97 27.346 Q 99.519 27.346 98.168 25.964 L 98.168 25.964 L 98.168 25.964 Q 96.817 24.581 96.817 21.942 L 96.817 21.942 L 96.817 13.741 L 93.738 13.741 L 93.738 11.29 L 96.817 11.29 L 96.817 7.331 L 99.991 6.231 L 99.991 11.29 L 104.358 11.29 L 104.358 13.741 Z  M 115.701 10.913 L 115.701 10.913 Q 121.389 10.913 121.389 17.26 L 121.389 17.26 L 121.389 27.126 L 118.215 27.126 L 118.215 17.449 L 118.215 17.449 Q 118.215 15.375 117.414 14.432 L 117.414 14.432 L 117.414 14.432 Q 116.613 13.489 114.853 13.489 L 114.853 13.489 L 114.853 13.489 Q 112.842 13.489 111.632 14.746 L 111.632 14.746 L 111.632 14.746 Q 110.423 16.003 110.423 18.108 L 110.423 18.108 L 110.423 27.126 L 107.28 27.126 L 107.28 4 L 110.423 4 L 110.423 13.741 L 110.423 13.741 Q 111.208 12.358 112.591 11.636 L 112.591 11.636 L 112.591 11.636 Q 113.973 10.913 115.701 10.913 L 115.701 10.913 Z  M 139.425 18.737 L 139.425 19.271 L 128.113 19.271 L 128.113 19.271 Q 128.27 24.833 133.172 24.833 L 133.172 24.833 L 133.172 24.833 Q 135.906 24.833 138.168 23.042 L 138.168 23.042 L 139.142 25.304 L 139.142 25.304 Q 138.074 26.247 136.424 26.797 L 136.424 26.797 L 136.424 26.797 Q 134.775 27.346 133.109 27.346 L 133.109 27.346 L 133.109 27.346 Q 129.307 27.346 127.139 25.163 L 127.139 25.163 L 127.139 25.163 Q 124.971 22.979 124.971 19.177 L 124.971 19.177 L 124.971 19.177 Q 124.971 16.757 125.929 14.872 L 125.929 14.872 L 125.929 14.872 Q 126.888 12.987 128.616 11.95 L 128.616 11.95 L 128.616 11.95 Q 130.344 10.913 132.544 10.913 L 132.544 10.913 L 132.544 10.913 Q 135.749 10.913 137.587 12.987 L 137.587 12.987 L 137.587 12.987 Q 139.425 15.06 139.425 18.737 L 139.425 18.737 Z  M 132.606 13.269 L 132.606 13.269 Q 130.815 13.269 129.684 14.338 L 129.684 14.338 L 129.684 14.338 Q 128.553 15.406 128.239 17.386 L 128.239 17.386 L 136.628 17.386 L 136.628 17.386 Q 136.44 15.375 135.403 14.322 L 135.403 14.322 L 135.403 14.322 Q 134.366 13.269 132.606 13.269 L 132.606 13.269 Z  M 150.957 10.913 L 150.957 10.913 Q 151.68 10.913 152.465 11.133 L 152.465 11.133 L 152.402 14.024 L 152.402 14.024 Q 151.554 13.709 150.548 13.709 L 150.548 13.709 L 150.548 13.709 Q 148.38 13.709 147.296 15.013 L 147.296 15.013 L 147.296 15.013 Q 146.212 16.317 146.212 18.297 L 146.212 18.297 L 146.212 27.126 L 143.07 27.126 L 143.07 15.752 L 143.07 15.752 Q 143.07 13.269 142.819 11.29 L 142.819 11.29 L 145.772 11.29 L 146.055 14.149 L 146.055 14.149 Q 146.683 12.578 148.003 11.745 L 148.003 11.745 L 148.003 11.745 Q 149.323 10.913 150.957 10.913 L 150.957 10.913 Z  M 163.306 10.913 L 163.306 10.913 Q 168.993 10.913 168.993 17.26 L 168.993 17.26 L 168.993 27.126 L 165.819 27.126 L 165.819 17.449 L 165.819 17.449 Q 165.819 15.375 165.018 14.432 L 165.018 14.432 L 165.018 14.432 Q 164.217 13.489 162.457 13.489 L 162.457 13.489 L 162.457 13.489 Q 160.446 13.489 159.236 14.746 L 159.236 14.746 L 159.236 14.746 Q 158.027 16.003 158.027 18.108 L 158.027 18.108 L 158.027 27.126 L 154.885 27.126 L 154.885 4 L 158.027 4 L 158.027 13.741 L 158.027 13.741 Q 158.812 12.358 160.195 11.636 L 160.195 11.636 L 160.195 11.636 Q 161.577 10.913 163.306 10.913 L 163.306 10.913 Z  M 184.861 11.29 L 188.003 11.29 L 188.003 27.126 L 184.861 27.126 L 184.861 24.424 L 184.861 24.424 Q 184.17 25.838 182.803 26.592 L 182.803 26.592 L 182.803 26.592 Q 181.436 27.346 179.614 27.346 L 179.614 27.346 L 179.614 27.346 Q 177.508 27.346 175.921 26.341 L 175.921 26.341 L 175.921 26.341 Q 174.335 25.335 173.455 23.497 L 173.455 23.497 L 173.455 23.497 Q 172.575 21.659 172.575 19.208 L 172.575 19.208 L 172.575 19.208 Q 172.575 16.757 173.471 14.872 L 173.471 14.872 L 173.471 14.872 Q 174.366 12.987 175.969 11.95 L 175.969 11.95 L 175.969 11.95 Q 177.571 10.913 179.614 10.913 L 179.614 10.913 L 179.614 10.913 Q 181.436 10.913 182.787 11.683 L 182.787 11.683 L 182.787 11.683 Q 184.138 12.452 184.861 13.866 L 184.861 13.866 L 184.861 11.29 Z  M 180.368 24.833 L 180.368 24.833 Q 182.504 24.833 183.683 23.34 L 183.683 23.34 L 183.683 23.34 Q 184.861 21.848 184.861 19.145 L 184.861 19.145 L 184.861 19.145 Q 184.861 16.412 183.683 14.935 L 183.683 14.935 L 183.683 14.935 Q 182.504 13.458 180.336 13.458 L 180.336 13.458 L 180.336 13.458 Q 178.2 13.458 176.99 14.982 L 176.99 14.982 L 176.99 14.982 Q 175.78 16.506 175.78 19.208 L 175.78 19.208 L 175.78 19.208 Q 175.78 21.879 176.99 23.356 L 176.99 23.356 L 176.99 23.356 Q 178.2 24.833 180.368 24.833 L 180.368 24.833 Z  M 210.721 10.913 L 210.721 10.913 Q 216 10.913 216 17.26 L 216 17.26 L 216 27.126 L 212.826 27.126 L 212.826 17.417 L 212.826 17.417 Q 212.826 15.375 212.119 14.432 L 212.119 14.432 L 212.119 14.432 Q 211.412 13.489 209.841 13.489 L 209.841 13.489 L 209.841 13.489 Q 208.019 13.489 206.966 14.746 L 206.966 14.746 L 206.966 14.746 Q 205.914 16.003 205.914 18.171 L 205.914 18.171 L 205.914 27.126 L 202.74 27.126 L 202.74 17.417 L 202.74 17.417 Q 202.74 15.375 202.033 14.432 L 202.033 14.432 L 202.033 14.432 Q 201.326 13.489 199.755 13.489 L 199.755 13.489 L 199.755 13.489 Q 197.932 13.489 196.864 14.746 L 196.864 14.746 L 196.864 14.746 Q 195.796 16.003 195.796 18.171 L 195.796 18.171 L 195.796 27.126 L 192.654 27.126 L 192.654 15.752 L 192.654 15.752 Q 192.654 13.269 192.402 11.29 L 192.402 11.29 L 195.356 11.29 L 195.639 13.929 L 195.639 13.929 Q 196.33 12.484 197.618 11.698 L 197.618 11.698 L 197.618 11.698 Q 198.907 10.913 200.635 10.913 L 200.635 10.913 L 200.635 10.913 Q 204.311 10.913 205.442 13.961 L 205.442 13.961 L 205.442 13.961 Q 206.165 12.547 207.563 11.73 L 207.563 11.73 L 207.563 11.73 Q 208.962 10.913 210.721 10.913 L 210.721 10.913 Z " fill-rule="evenodd" fill="rgb(255,255,255)"/><path d=" M 181.567 41.962 L 181.567 41.962 Q 180.372 41.962 179.485 41.446 L 179.485 41.446 L 179.485 41.446 Q 178.598 40.93 178.122 39.979 L 178.122 39.979 L 178.122 39.979 Q 177.647 39.028 177.647 37.729 L 177.647 37.729 L 177.647 37.729 Q 177.647 36.441 178.122 35.49 L 178.122 35.49 L 178.122 35.49 Q 178.598 34.539 179.485 34.029 L 179.485 34.029 L 179.485 34.029 Q 180.372 33.519 181.567 33.519 L 181.567 33.519 L 181.567 33.519 Q 182.413 33.519 183.138 33.78 L 183.138 33.78 L 183.138 33.78 Q 183.863 34.041 184.362 34.539 L 184.362 34.539 L 183.944 35.421 L 183.944 35.421 Q 183.364 34.945 182.802 34.731 L 182.802 34.731 L 182.802 34.731 Q 182.239 34.516 181.578 34.516 L 181.578 34.516 L 181.578 34.516 Q 180.291 34.516 179.589 35.351 L 179.589 35.351 L 179.589 35.351 Q 178.888 36.186 178.888 37.729 L 178.888 37.729 L 178.888 37.729 Q 178.888 39.283 179.589 40.124 L 179.589 40.124 L 179.589 40.124 Q 180.291 40.965 181.578 40.965 L 181.578 40.965 L 181.578 40.965 Q 182.239 40.965 182.802 40.75 L 182.802 40.75 L 182.802 40.75 Q 183.364 40.535 183.944 40.06 L 183.944 40.06 L 184.362 40.941 L 184.362 40.941 Q 183.863 41.44 183.138 41.701 L 183.138 41.701 L 183.138 41.701 Q 182.413 41.962 181.567 41.962 L 181.567 41.962 Z  M 188.282 41.95 L 188.282 41.95 Q 187.424 41.95 186.774 41.579 L 186.774 41.579 L 186.774 41.579 Q 186.125 41.208 185.771 40.524 L 185.771 40.524 L 185.771 40.524 Q 185.417 39.84 185.417 38.923 L 185.417 38.923 L 185.417 38.923 Q 185.417 38.007 185.771 37.317 L 185.771 37.317 L 185.771 37.317 Q 186.125 36.627 186.774 36.256 L 186.774 36.256 L 186.774 36.256 Q 187.424 35.885 188.282 35.885 L 188.282 35.885 L 188.282 35.885 Q 189.128 35.885 189.778 36.256 L 189.778 36.256 L 189.778 36.256 Q 190.427 36.627 190.781 37.317 L 190.781 37.317 L 190.781 37.317 Q 191.135 38.007 191.135 38.923 L 191.135 38.923 L 191.135 38.923 Q 191.135 39.84 190.781 40.524 L 190.781 40.524 L 190.781 40.524 Q 190.427 41.208 189.778 41.579 L 189.778 41.579 L 189.778 41.579 Q 189.128 41.95 188.282 41.95 L 188.282 41.95 Z  M 188.27 41.023 L 188.27 41.023 Q 189.082 41.023 189.511 40.489 L 189.511 40.489 L 189.511 40.489 Q 189.94 39.956 189.94 38.923 L 189.94 38.923 L 189.94 38.923 Q 189.94 37.914 189.505 37.369 L 189.505 37.369 L 189.505 37.369 Q 189.07 36.824 188.282 36.824 L 188.282 36.824 L 188.282 36.824 Q 187.482 36.824 187.041 37.369 L 187.041 37.369 L 187.041 37.369 Q 186.6 37.914 186.6 38.923 L 186.6 38.923 L 186.6 38.923 Q 186.6 39.956 187.035 40.489 L 187.035 40.489 L 187.035 40.489 Q 187.47 41.023 188.27 41.023 L 188.27 41.023 Z  M 196.412 36.024 L 197.583 36.024 L 197.583 41.869 L 196.447 41.869 L 196.447 40.895 L 196.447 40.895 Q 196.168 41.405 195.681 41.678 L 195.681 41.678 L 195.681 41.678 Q 195.194 41.95 194.579 41.95 L 194.579 41.95 L 194.579 41.95 Q 192.469 41.95 192.469 39.608 L 192.469 39.608 L 192.469 36.024 L 193.628 36.024 L 193.628 39.596 L 193.628 39.596 Q 193.628 40.315 193.924 40.657 L 193.924 40.657 L 193.924 40.657 Q 194.22 40.999 194.823 40.999 L 194.823 40.999 L 194.823 40.999 Q 195.542 40.999 195.977 40.535 L 195.977 40.535 L 195.977 40.535 Q 196.412 40.072 196.412 39.306 L 196.412 39.306 L 196.412 36.024 Z  M 202.408 35.885 L 202.408 35.885 Q 204.507 35.885 204.507 38.228 L 204.507 38.228 L 204.507 41.869 L 203.335 41.869 L 203.335 38.297 L 203.335 38.297 Q 203.335 37.532 203.04 37.184 L 203.04 37.184 L 203.04 37.184 Q 202.744 36.836 202.095 36.836 L 202.095 36.836 L 202.095 36.836 Q 201.352 36.836 200.906 37.3 L 200.906 37.3 L 200.906 37.3 Q 200.459 37.764 200.459 38.541 L 200.459 38.541 L 200.459 41.869 L 199.3 41.869 L 199.3 37.671 L 199.3 37.671 Q 199.3 36.755 199.207 36.024 L 199.207 36.024 L 200.297 36.024 L 200.401 37.033 L 200.401 37.033 Q 200.68 36.476 201.207 36.181 L 201.207 36.181 L 201.207 36.181 Q 201.735 35.885 202.408 35.885 L 202.408 35.885 Z  M 208.717 41.95 L 208.717 41.95 Q 207.835 41.95 207.18 41.579 L 207.18 41.579 L 207.18 41.579 Q 206.525 41.208 206.177 40.53 L 206.177 40.53 L 206.177 40.53 Q 205.829 39.851 205.829 38.947 L 205.829 38.947 L 205.829 38.947 Q 205.829 38.042 206.194 37.346 L 206.194 37.346 L 206.194 37.346 Q 206.56 36.65 207.221 36.268 L 207.221 36.268 L 207.221 36.268 Q 207.882 35.885 208.763 35.885 L 208.763 35.885 L 208.763 35.885 Q 209.378 35.885 209.946 36.088 L 209.946 36.088 L 209.946 36.088 Q 210.514 36.291 210.862 36.639 L 210.862 36.639 L 210.503 37.485 L 210.503 37.485 Q 209.679 36.836 208.844 36.836 L 208.844 36.836 L 208.844 36.836 Q 207.998 36.836 207.522 37.387 L 207.522 37.387 L 207.522 37.387 Q 207.047 37.938 207.047 38.935 L 207.047 38.935 L 207.047 38.935 Q 207.047 39.932 207.522 40.472 L 207.522 40.472 L 207.522 40.472 Q 207.998 41.011 208.844 41.011 L 208.844 41.011 L 208.844 41.011 Q 209.703 41.011 210.503 40.361 L 210.503 40.361 L 210.862 41.208 L 210.862 41.208 Q 210.491 41.556 209.917 41.753 L 209.917 41.753 L 209.917 41.753 Q 209.343 41.95 208.717 41.95 L 208.717 41.95 Z  M 213.124 41.869 L 211.964 41.869 L 211.964 36.024 L 213.124 36.024 L 213.124 41.869 Z  M 211.86 34.702 L 211.86 33.473 L 213.217 33.473 L 213.217 34.702 L 211.86 34.702 Z  M 216 41.869 L 214.84 41.869 L 214.84 33.333 L 216 33.333 L 216 41.869 Z  M 133.135 37.613 L 133.135 37.613 Q 133.854 37.81 134.249 38.332 L 134.249 38.332 L 134.249 38.332 Q 134.643 38.854 134.643 39.619 L 134.643 39.619 L 134.643 39.619 Q 134.643 40.686 133.907 41.278 L 133.907 41.278 L 133.907 41.278 Q 133.17 41.869 131.848 41.869 L 131.848 41.869 L 128.276 41.869 L 128.276 33.612 L 131.732 33.612 L 131.732 33.612 Q 133.008 33.612 133.721 34.18 L 133.721 34.18 L 133.721 34.18 Q 134.434 34.748 134.434 35.769 L 134.434 35.769 L 134.434 35.769 Q 134.434 36.43 134.092 36.911 L 134.092 36.911 L 134.092 36.911 Q 133.75 37.392 133.135 37.613 L 133.135 37.613 Z  M 129.459 34.574 L 129.459 37.195 L 131.547 37.195 L 131.547 37.195 Q 133.275 37.195 133.275 35.862 L 133.275 35.862 L 133.275 35.862 Q 133.275 34.574 131.547 34.574 L 131.547 34.574 L 129.459 34.574 Z  M 131.732 40.907 L 131.732 40.907 Q 132.637 40.907 133.054 40.576 L 133.054 40.576 L 133.054 40.576 Q 133.472 40.245 133.472 39.55 L 133.472 39.55 L 133.472 39.55 Q 133.472 38.842 133.048 38.5 L 133.048 38.5 L 133.048 38.5 Q 132.625 38.158 131.732 38.158 L 131.732 38.158 L 129.459 38.158 L 129.459 40.907 L 131.732 40.907 Z  M 138.633 41.95 L 138.633 41.95 Q 137.774 41.95 137.125 41.579 L 137.125 41.579 L 137.125 41.579 Q 136.476 41.208 136.122 40.524 L 136.122 40.524 L 136.122 40.524 Q 135.768 39.84 135.768 38.923 L 135.768 38.923 L 135.768 38.923 Q 135.768 38.007 136.122 37.317 L 136.122 37.317 L 136.122 37.317 Q 136.476 36.627 137.125 36.256 L 137.125 36.256 L 137.125 36.256 Q 137.774 35.885 138.633 35.885 L 138.633 35.885 L 138.633 35.885 Q 139.479 35.885 140.129 36.256 L 140.129 36.256 L 140.129 36.256 Q 140.778 36.627 141.132 37.317 L 141.132 37.317 L 141.132 37.317 Q 141.486 38.007 141.486 38.923 L 141.486 38.923 L 141.486 38.923 Q 141.486 39.84 141.132 40.524 L 141.132 40.524 L 141.132 40.524 Q 140.778 41.208 140.129 41.579 L 140.129 41.579 L 140.129 41.579 Q 139.479 41.95 138.633 41.95 L 138.633 41.95 Z  M 138.621 41.023 L 138.621 41.023 Q 139.433 41.023 139.862 40.489 L 139.862 40.489 L 139.862 40.489 Q 140.291 39.956 140.291 38.923 L 140.291 38.923 L 140.291 38.923 Q 140.291 37.914 139.856 37.369 L 139.856 37.369 L 139.856 37.369 Q 139.421 36.824 138.633 36.824 L 138.633 36.824 L 138.633 36.824 Q 137.832 36.824 137.392 37.369 L 137.392 37.369 L 137.392 37.369 Q 136.951 37.914 136.951 38.923 L 136.951 38.923 L 136.951 38.923 Q 136.951 39.956 137.386 40.489 L 137.386 40.489 L 137.386 40.489 Q 137.821 41.023 138.621 41.023 L 138.621 41.023 Z  M 145.765 35.885 L 145.765 35.885 Q 146.032 35.885 146.322 35.966 L 146.322 35.966 L 146.299 37.033 L 146.299 37.033 Q 145.986 36.917 145.614 36.917 L 145.614 36.917 L 145.614 36.917 Q 144.814 36.917 144.414 37.398 L 144.414 37.398 L 144.414 37.398 Q 144.014 37.88 144.014 38.61 L 144.014 38.61 L 144.014 41.869 L 142.854 41.869 L 142.854 37.671 L 142.854 37.671 Q 142.854 36.755 142.761 36.024 L 142.761 36.024 L 143.852 36.024 L 143.956 37.079 L 143.956 37.079 Q 144.188 36.499 144.675 36.192 L 144.675 36.192 L 144.675 36.192 Q 145.162 35.885 145.765 35.885 L 145.765 35.885 Z  M 149.732 41.95 L 149.732 41.95 Q 148.873 41.95 148.224 41.579 L 148.224 41.579 L 148.224 41.579 Q 147.574 41.208 147.221 40.524 L 147.221 40.524 L 147.221 40.524 Q 146.867 39.84 146.867 38.923 L 146.867 38.923 L 146.867 38.923 Q 146.867 38.007 147.221 37.317 L 147.221 37.317 L 147.221 37.317 Q 147.574 36.627 148.224 36.256 L 148.224 36.256 L 148.224 36.256 Q 148.873 35.885 149.732 35.885 L 149.732 35.885 L 149.732 35.885 Q 150.578 35.885 151.228 36.256 L 151.228 36.256 L 151.228 36.256 Q 151.877 36.627 152.231 37.317 L 152.231 37.317 L 152.231 37.317 Q 152.585 38.007 152.585 38.923 L 152.585 38.923 L 152.585 38.923 Q 152.585 39.84 152.231 40.524 L 152.231 40.524 L 152.231 40.524 Q 151.877 41.208 151.228 41.579 L 151.228 41.579 L 151.228 41.579 Q 150.578 41.95 149.732 41.95 L 149.732 41.95 Z  M 149.72 41.023 L 149.72 41.023 Q 150.532 41.023 150.961 40.489 L 150.961 40.489 L 150.961 40.489 Q 151.39 39.956 151.39 38.923 L 151.39 38.923 L 151.39 38.923 Q 151.39 37.914 150.955 37.369 L 150.955 37.369 L 150.955 37.369 Q 150.52 36.824 149.732 36.824 L 149.732 36.824 L 149.732 36.824 Q 148.931 36.824 148.491 37.369 L 148.491 37.369 L 148.491 37.369 Q 148.05 37.914 148.05 38.923 L 148.05 38.923 L 148.05 38.923 Q 148.05 39.956 148.485 40.489 L 148.485 40.489 L 148.485 40.489 Q 148.92 41.023 149.72 41.023 L 149.72 41.023 Z  M 157.861 36.024 L 159.033 36.024 L 159.033 41.869 L 157.896 41.869 L 157.896 40.895 L 157.896 40.895 Q 157.618 41.405 157.131 41.678 L 157.131 41.678 L 157.131 41.678 Q 156.644 41.95 156.029 41.95 L 156.029 41.95 L 156.029 41.95 Q 153.918 41.95 153.918 39.608 L 153.918 39.608 L 153.918 36.024 L 155.078 36.024 L 155.078 39.596 L 155.078 39.596 Q 155.078 40.315 155.374 40.657 L 155.374 40.657 L 155.374 40.657 Q 155.669 40.999 156.273 40.999 L 156.273 40.999 L 156.273 40.999 Q 156.992 40.999 157.427 40.535 L 157.427 40.535 L 157.427 40.535 Q 157.861 40.072 157.861 39.306 L 157.861 39.306 L 157.861 36.024 Z  M 164.982 36.024 L 166.142 36.024 L 166.142 41.765 L 166.142 41.765 Q 166.142 43.098 165.44 43.777 L 165.44 43.777 L 165.44 43.777 Q 164.739 44.455 163.359 44.455 L 163.359 44.455 L 163.359 44.455 Q 162.025 44.455 161.028 43.876 L 161.028 43.876 L 161.225 42.959 L 161.225 42.959 Q 161.77 43.249 162.274 43.388 L 162.274 43.388 L 162.274 43.388 Q 162.779 43.528 163.347 43.528 L 163.347 43.528 L 163.347 43.528 Q 164.982 43.528 164.982 41.858 L 164.982 41.858 L 164.982 40.593 L 164.982 40.593 Q 164.716 41.104 164.205 41.399 L 164.205 41.399 L 164.205 41.399 Q 163.695 41.695 163.022 41.695 L 163.022 41.695 L 163.022 41.695 Q 162.257 41.695 161.66 41.336 L 161.66 41.336 L 161.66 41.336 Q 161.062 40.976 160.732 40.315 L 160.732 40.315 L 160.732 40.315 Q 160.401 39.654 160.401 38.796 L 160.401 38.796 L 160.401 38.796 Q 160.401 37.938 160.732 37.277 L 160.732 37.277 L 160.732 37.277 Q 161.062 36.615 161.66 36.25 L 161.66 36.25 L 161.66 36.25 Q 162.257 35.885 163.022 35.885 L 163.022 35.885 L 163.022 35.885 Q 163.695 35.885 164.205 36.169 L 164.205 36.169 L 164.205 36.169 Q 164.716 36.453 164.982 36.975 L 164.982 36.975 L 164.982 36.024 Z  M 163.289 40.756 L 163.289 40.756 Q 164.078 40.756 164.53 40.234 L 164.53 40.234 L 164.53 40.234 Q 164.982 39.712 164.982 38.796 L 164.982 38.796 L 164.982 38.796 Q 164.982 37.88 164.536 37.352 L 164.536 37.352 L 164.536 37.352 Q 164.089 36.824 163.289 36.824 L 163.289 36.824 L 163.289 36.824 Q 162.5 36.824 162.042 37.352 L 162.042 37.352 L 162.042 37.352 Q 161.584 37.88 161.584 38.796 L 161.584 38.796 L 161.584 38.796 Q 161.584 39.7 162.042 40.228 L 162.042 40.228 L 162.042 40.228 Q 162.5 40.756 163.289 40.756 L 163.289 40.756 Z  M 170.967 35.885 L 170.967 35.885 Q 173.066 35.885 173.066 38.228 L 173.066 38.228 L 173.066 41.869 L 171.894 41.869 L 171.894 38.297 L 171.894 38.297 Q 171.894 37.532 171.599 37.184 L 171.599 37.184 L 171.599 37.184 Q 171.303 36.836 170.654 36.836 L 170.654 36.836 L 170.654 36.836 Q 169.911 36.836 169.465 37.3 L 169.465 37.3 L 169.465 37.3 Q 169.018 37.764 169.018 38.541 L 169.018 38.541 L 169.018 41.869 L 167.859 41.869 L 167.859 33.333 L 169.018 33.333 L 169.018 36.929 L 169.018 36.929 Q 169.308 36.418 169.819 36.152 L 169.819 36.152 L 169.819 36.152 Q 170.329 35.885 170.967 35.885 L 170.967 35.885 Z  M 59.966 40.431 L 62.935 33.612 L 63.898 33.612 L 63.898 41.869 L 62.819 41.869 L 62.819 36.198 L 60.372 41.869 L 59.549 41.869 L 57.067 36.233 L 57.079 41.869 L 56 41.869 L 56 33.612 L 56.963 33.612 L 59.966 40.431 Z  M 70.717 38.773 L 70.717 38.97 L 66.542 38.97 L 66.542 38.97 Q 66.6 41.023 68.409 41.023 L 68.409 41.023 L 68.409 41.023 Q 69.418 41.023 70.253 40.361 L 70.253 40.361 L 70.613 41.196 L 70.613 41.196 Q 70.219 41.544 69.61 41.747 L 69.61 41.747 L 69.61 41.747 Q 69.001 41.95 68.386 41.95 L 68.386 41.95 L 68.386 41.95 Q 66.983 41.95 66.183 41.144 L 66.183 41.144 L 66.183 41.144 Q 65.382 40.338 65.382 38.935 L 65.382 38.935 L 65.382 38.935 Q 65.382 38.042 65.736 37.346 L 65.736 37.346 L 65.736 37.346 Q 66.09 36.65 66.728 36.268 L 66.728 36.268 L 66.728 36.268 Q 67.366 35.885 68.177 35.885 L 68.177 35.885 L 68.177 35.885 Q 69.36 35.885 70.039 36.65 L 70.039 36.65 L 70.039 36.65 Q 70.717 37.416 70.717 38.773 L 70.717 38.773 Z  M 68.201 36.755 L 68.201 36.755 Q 67.54 36.755 67.122 37.149 L 67.122 37.149 L 67.122 37.149 Q 66.705 37.543 66.589 38.274 L 66.589 38.274 L 69.685 38.274 L 69.685 38.274 Q 69.616 37.532 69.233 37.143 L 69.233 37.143 L 69.233 37.143 Q 68.85 36.755 68.201 36.755 L 68.201 36.755 Z  M 75.194 36.929 L 73.582 36.929 L 73.582 39.863 L 73.582 39.863 Q 73.582 40.466 73.843 40.715 L 73.843 40.715 L 73.843 40.715 Q 74.104 40.965 74.568 40.965 L 74.568 40.965 L 74.568 40.965 Q 74.869 40.965 75.182 40.872 L 75.182 40.872 L 75.182 41.823 L 75.182 41.823 Q 74.8 41.95 74.313 41.95 L 74.313 41.95 L 74.313 41.95 Q 73.408 41.95 72.909 41.44 L 72.909 41.44 L 72.909 41.44 Q 72.411 40.93 72.411 39.956 L 72.411 39.956 L 72.411 36.929 L 71.274 36.929 L 71.274 36.024 L 72.411 36.024 L 72.411 34.563 L 73.582 34.157 L 73.582 36.024 L 75.194 36.024 L 75.194 36.929 Z  M 79.184 35.885 L 79.184 35.885 Q 79.45 35.885 79.74 35.966 L 79.74 35.966 L 79.717 37.033 L 79.717 37.033 Q 79.404 36.917 79.033 36.917 L 79.033 36.917 L 79.033 36.917 Q 78.233 36.917 77.832 37.398 L 77.832 37.398 L 77.832 37.398 Q 77.432 37.88 77.432 38.61 L 77.432 38.61 L 77.432 41.869 L 76.273 41.869 L 76.273 37.671 L 76.273 37.671 Q 76.273 36.755 76.18 36.024 L 76.18 36.024 L 77.27 36.024 L 77.374 37.079 L 77.374 37.079 Q 77.606 36.499 78.093 36.192 L 78.093 36.192 L 78.093 36.192 Q 78.58 35.885 79.184 35.885 L 79.184 35.885 Z  M 83.15 41.95 L 83.15 41.95 Q 82.292 41.95 81.642 41.579 L 81.642 41.579 L 81.642 41.579 Q 80.993 41.208 80.639 40.524 L 80.639 40.524 L 80.639 40.524 Q 80.285 39.84 80.285 38.923 L 80.285 38.923 L 80.285 38.923 Q 80.285 38.007 80.639 37.317 L 80.639 37.317 L 80.639 37.317 Q 80.993 36.627 81.642 36.256 L 81.642 36.256 L 81.642 36.256 Q 82.292 35.885 83.15 35.885 L 83.15 35.885 L 83.15 35.885 Q 83.997 35.885 84.646 36.256 L 84.646 36.256 L 84.646 36.256 Q 85.295 36.627 85.649 37.317 L 85.649 37.317 L 85.649 37.317 Q 86.003 38.007 86.003 38.923 L 86.003 38.923 L 86.003 38.923 Q 86.003 39.84 85.649 40.524 L 85.649 40.524 L 85.649 40.524 Q 85.295 41.208 84.646 41.579 L 84.646 41.579 L 84.646 41.579 Q 83.997 41.95 83.15 41.95 L 83.15 41.95 Z  M 83.138 41.023 L 83.138 41.023 Q 83.95 41.023 84.379 40.489 L 84.379 40.489 L 84.379 40.489 Q 84.808 39.956 84.808 38.923 L 84.808 38.923 L 84.808 38.923 Q 84.808 37.914 84.373 37.369 L 84.373 37.369 L 84.373 37.369 Q 83.939 36.824 83.15 36.824 L 83.15 36.824 L 83.15 36.824 Q 82.35 36.824 81.909 37.369 L 81.909 37.369 L 81.909 37.369 Q 81.468 37.914 81.468 38.923 L 81.468 38.923 L 81.468 38.923 Q 81.468 39.956 81.903 40.489 L 81.903 40.489 L 81.903 40.489 Q 82.338 41.023 83.138 41.023 L 83.138 41.023 Z  M 90.468 35.885 L 90.468 35.885 Q 91.222 35.885 91.813 36.268 L 91.813 36.268 L 91.813 36.268 Q 92.405 36.65 92.735 37.346 L 92.735 37.346 L 92.735 37.346 Q 93.066 38.042 93.066 38.947 L 93.066 38.947 L 93.066 38.947 Q 93.066 39.851 92.741 40.53 L 92.741 40.53 L 92.741 40.53 Q 92.416 41.208 91.825 41.579 L 91.825 41.579 L 91.825 41.579 Q 91.233 41.95 90.468 41.95 L 90.468 41.95 L 90.468 41.95 Q 89.795 41.95 89.291 41.666 L 89.291 41.666 L 89.291 41.666 Q 88.786 41.382 88.531 40.849 L 88.531 40.849 L 88.531 44.374 L 87.371 44.374 L 87.371 37.671 L 87.371 37.671 Q 87.371 36.755 87.279 36.024 L 87.279 36.024 L 88.369 36.024 L 88.485 37.103 L 88.485 37.103 Q 88.717 36.523 89.239 36.204 L 89.239 36.204 L 89.239 36.204 Q 89.761 35.885 90.468 35.885 L 90.468 35.885 Z  M 90.201 41.023 L 90.201 41.023 Q 90.99 41.023 91.431 40.477 L 91.431 40.477 L 91.431 40.477 Q 91.871 39.932 91.871 38.947 L 91.871 38.947 L 91.871 38.947 Q 91.871 37.949 91.431 37.387 L 91.431 37.387 L 91.431 37.387 Q 90.99 36.824 90.201 36.824 L 90.201 36.824 L 90.201 36.824 Q 89.389 36.824 88.96 37.369 L 88.96 37.369 L 88.96 37.369 Q 88.531 37.914 88.531 38.923 L 88.531 38.923 L 88.531 38.923 Q 88.531 39.932 88.966 40.477 L 88.966 40.477 L 88.966 40.477 Q 89.401 41.023 90.201 41.023 L 90.201 41.023 Z  M 96.951 41.95 L 96.951 41.95 Q 96.093 41.95 95.443 41.579 L 95.443 41.579 L 95.443 41.579 Q 94.794 41.208 94.44 40.524 L 94.44 40.524 L 94.44 40.524 Q 94.086 39.84 94.086 38.923 L 94.086 38.923 L 94.086 38.923 Q 94.086 38.007 94.44 37.317 L 94.44 37.317 L 94.44 37.317 Q 94.794 36.627 95.443 36.256 L 95.443 36.256 L 95.443 36.256 Q 96.093 35.885 96.951 35.885 L 96.951 35.885 L 96.951 35.885 Q 97.798 35.885 98.447 36.256 L 98.447 36.256 L 98.447 36.256 Q 99.097 36.627 99.45 37.317 L 99.45 37.317 L 99.45 37.317 Q 99.804 38.007 99.804 38.923 L 99.804 38.923 L 99.804 38.923 Q 99.804 39.84 99.45 40.524 L 99.45 40.524 L 99.45 40.524 Q 99.097 41.208 98.447 41.579 L 98.447 41.579 L 98.447 41.579 Q 97.798 41.95 96.951 41.95 L 96.951 41.95 Z  M 96.939 41.023 L 96.939 41.023 Q 97.751 41.023 98.18 40.489 L 98.18 40.489 L 98.18 40.489 Q 98.609 39.956 98.609 38.923 L 98.609 38.923 L 98.609 38.923 Q 98.609 37.914 98.175 37.369 L 98.175 37.369 L 98.175 37.369 Q 97.74 36.824 96.951 36.824 L 96.951 36.824 L 96.951 36.824 Q 96.151 36.824 95.71 37.369 L 95.71 37.369 L 95.71 37.369 Q 95.269 37.914 95.269 38.923 L 95.269 38.923 L 95.269 38.923 Q 95.269 39.956 95.704 40.489 L 95.704 40.489 L 95.704 40.489 Q 96.139 41.023 96.939 41.023 L 96.939 41.023 Z  M 102.332 41.869 L 101.173 41.869 L 101.173 33.333 L 102.332 33.333 L 102.332 41.869 Z  M 105.208 41.869 L 104.049 41.869 L 104.049 36.024 L 105.208 36.024 L 105.208 41.869 Z  M 103.944 34.702 L 103.944 33.473 L 105.301 33.473 L 105.301 34.702 L 103.944 34.702 Z  M 110.056 36.929 L 108.444 36.929 L 108.444 39.863 L 108.444 39.863 Q 108.444 40.466 108.705 40.715 L 108.705 40.715 L 108.705 40.715 Q 108.966 40.965 109.43 40.965 L 109.43 40.965 L 109.43 40.965 Q 109.732 40.965 110.045 40.872 L 110.045 40.872 L 110.045 41.823 L 110.045 41.823 Q 109.662 41.95 109.175 41.95 L 109.175 41.95 L 109.175 41.95 Q 108.27 41.95 107.772 41.44 L 107.772 41.44 L 107.772 41.44 Q 107.273 40.93 107.273 39.956 L 107.273 39.956 L 107.273 36.929 L 106.136 36.929 L 106.136 36.024 L 107.273 36.024 L 107.273 34.563 L 108.444 34.157 L 108.444 36.024 L 110.056 36.024 L 110.056 36.929 Z  M 115.322 36.024 L 116.481 36.024 L 116.481 41.869 L 115.322 41.869 L 115.322 40.872 L 115.322 40.872 Q 115.066 41.394 114.562 41.672 L 114.562 41.672 L 114.562 41.672 Q 114.057 41.95 113.385 41.95 L 113.385 41.95 L 113.385 41.95 Q 112.608 41.95 112.022 41.579 L 112.022 41.579 L 112.022 41.579 Q 111.436 41.208 111.112 40.53 L 111.112 40.53 L 111.112 40.53 Q 110.787 39.851 110.787 38.947 L 110.787 38.947 L 110.787 38.947 Q 110.787 38.042 111.117 37.346 L 111.117 37.346 L 111.117 37.346 Q 111.448 36.65 112.039 36.268 L 112.039 36.268 L 112.039 36.268 Q 112.631 35.885 113.385 35.885 L 113.385 35.885 L 113.385 35.885 Q 114.057 35.885 114.556 36.169 L 114.556 36.169 L 114.556 36.169 Q 115.055 36.453 115.322 36.975 L 115.322 36.975 L 115.322 36.024 Z  M 113.663 41.023 L 113.663 41.023 Q 114.452 41.023 114.887 40.472 L 114.887 40.472 L 114.887 40.472 Q 115.322 39.921 115.322 38.923 L 115.322 38.923 L 115.322 38.923 Q 115.322 37.914 114.887 37.369 L 114.887 37.369 L 114.887 37.369 Q 114.452 36.824 113.651 36.824 L 113.651 36.824 L 113.651 36.824 Q 112.863 36.824 112.416 37.387 L 112.416 37.387 L 112.416 37.387 Q 111.97 37.949 111.97 38.947 L 111.97 38.947 L 111.97 38.947 Q 111.97 39.932 112.416 40.477 L 112.416 40.477 L 112.416 40.477 Q 112.863 41.023 113.663 41.023 L 113.663 41.023 Z  M 121.306 35.885 L 121.306 35.885 Q 123.405 35.885 123.405 38.228 L 123.405 38.228 L 123.405 41.869 L 122.234 41.869 L 122.234 38.297 L 122.234 38.297 Q 122.234 37.532 121.938 37.184 L 121.938 37.184 L 121.938 37.184 Q 121.642 36.836 120.993 36.836 L 120.993 36.836 L 120.993 36.836 Q 120.251 36.836 119.804 37.3 L 119.804 37.3 L 119.804 37.3 Q 119.357 37.764 119.357 38.541 L 119.357 38.541 L 119.357 41.869 L 118.198 41.869 L 118.198 37.671 L 118.198 37.671 Q 118.198 36.755 118.105 36.024 L 118.105 36.024 L 119.195 36.024 L 119.3 37.033 L 119.3 37.033 Q 119.578 36.476 120.106 36.181 L 120.106 36.181 L 120.106 36.181 Q 120.633 35.885 121.306 35.885 L 121.306 35.885 Z " fill-rule="evenodd" fill="rgb(255,255,255)"/></svg>